<svg width="500" height="500" viewBox="0 0 646 646" fill="none" xmlns="http://www.w3.org/2000/svg">
<path d="M411.741 145.158C421.646 155.063 426.51 169.186 426.718 186.373C426.927 203.567 422.471 223.759 413.81 245.666C396.49 289.476 362.425 339.96 315.692 386.693C268.959 433.426 218.475 467.491 174.664 484.811C152.758 493.472 132.566 497.928 115.372 497.72C98.185 497.511 84.0622 492.647 74.1572 482.743C64.2523 472.838 59.3883 458.715 59.1802 441.528C58.972 424.334 63.4277 404.142 72.0885 382.235C89.4088 338.425 123.474 287.941 170.207 241.208C216.939 194.475 267.424 160.41 311.234 143.09C333.141 134.429 353.333 129.973 370.526 130.181C387.714 130.39 401.836 135.254 411.741 145.158Z" stroke="white" stroke-width="2"/>
<path d="M499.881 233.297C509.786 243.202 514.65 257.325 514.858 274.512C515.066 291.706 510.61 311.898 501.95 333.804C484.629 377.614 450.564 428.099 403.831 474.832C357.099 521.564 306.614 555.63 262.804 572.95C240.897 581.611 220.706 586.066 203.512 585.858C186.325 585.65 172.202 580.786 162.297 570.881C152.392 560.976 147.528 546.853 147.32 529.666C147.112 512.473 151.567 492.281 160.228 470.374C177.548 426.564 211.614 376.079 258.346 329.347C305.079 282.614 355.564 248.549 399.374 231.228C421.281 222.568 441.472 218.112 458.666 218.32C475.853 218.528 489.976 223.392 499.881 233.297Z" stroke="white" stroke-width="2"/>
<path fill-rule="evenodd" clip-rule="evenodd" d="M499.53 193.002C500.193 215.711 512.105 233.941 526.944 234.957V235.047C512.105 236.063 500.193 254.293 499.53 277.002L499.471 277.002C498.807 254.293 486.896 236.063 472.057 235.047V234.957C486.896 233.941 498.807 215.711 499.471 193.002H499.53ZM557 147.002H442L472.057 147.002H526.944H528.25L557 147.002ZM470.815 323.002H470.687L470.75 323.002L470.815 323.002Z" fill="#F55718"/>
</svg>
