<?xml version="1.0" encoding="UTF-8"?>
<svg id="Layer_1" data-name="Layer 1" xmlns="http://www.w3.org/2000/svg" viewBox="0 0 468.77 457.69">
  <defs>
    <style>
      .cls-1 {
        fill: #f55718;
        fill-rule: evenodd;
      }

      .cls-2 {
        fill: none;
        stroke: #fff;
        stroke-width: 2px;
      }
    </style>
  </defs>
  <path class="cls-2" d="m353.57,15.98c9.9,9.9,14.77,24.03,14.98,41.21.21,17.19-4.25,37.39-12.91,59.29-17.32,43.81-51.39,94.29-98.12,141.03-46.73,46.73-97.22,80.8-141.03,98.12-21.91,8.66-42.1,13.12-59.29,12.91-17.19-.21-31.31-5.07-41.21-14.98-9.9-9.9-14.77-24.03-14.98-41.21-.21-17.19,4.25-37.39,12.91-59.29,17.32-43.81,51.39-94.29,98.12-141.03C158.77,65.3,209.25,31.24,253.06,13.92c21.91-8.66,42.1-13.12,59.29-12.91,17.19.21,31.31,5.07,41.21,14.98Z"/>
  <path class="cls-2" d="m441.71,104.12c9.9,9.9,14.77,24.03,14.98,41.21.21,17.19-4.25,37.39-12.91,59.29-17.32,43.81-51.39,94.3-98.12,141.03-46.73,46.73-97.22,80.8-141.03,98.12-21.91,8.66-42.1,13.12-59.29,12.91-17.19-.21-31.31-5.07-41.21-14.98-9.9-9.9-14.77-24.03-14.98-41.21-.21-17.19,4.25-37.39,12.91-59.29,17.32-43.81,51.39-94.29,98.12-141.03,46.73-46.73,97.22-80.8,141.03-98.12,21.91-8.66,42.1-13.12,59.29-12.91,17.19.21,31.31,5.07,41.22,14.98Z"/>
  <path class="cls-1" d="m441.36,63.83c.66,22.71,12.57,40.94,27.41,41.96v.09c-14.84,1.02-26.75,19.25-27.41,41.96h-.06c-.66-22.71-12.58-40.94-27.41-41.96v-.09c14.84-1.02,26.75-19.25,27.41-41.96h.06Z"/>
</svg>