<svg width="132" height="38" viewBox="0 0 132 38" fill="none" xmlns="http://www.w3.org/2000/svg">
<path d="M3.88236 -0.00195312H0V37.998H3.88236V-0.00195312Z" fill="#F1EEEA"/>
<path d="M7.76491 -0.00195312H5.82373V37.998H7.76491V-0.00195312Z" fill="#F1EEEA"/>
<path d="M13.5882 -0.00195312H11.647V37.998H13.5882V-0.00195312Z" fill="#F1EEEA"/>
<path d="M23.2942 -0.00195312H21.353V37.998H23.2942V-0.00195312Z" fill="#F1EEEA"/>
<path d="M34.9409 -0.00195312H31.0586V37.998H34.9409V-0.00195312Z" fill="#F1EEEA"/>
<path d="M38.8235 -0.00195312H36.8823V37.998H38.8235V-0.00195312Z" fill="#F1EEEA"/>
<path d="M44.6472 -0.00195312H42.7061V37.998H44.6472V-0.00195312Z" fill="#F1EEEA"/>
<path d="M56.294 -0.00195312H48.5293V37.998H56.294V-0.00195312Z" fill="#F1EEEA"/>
<path d="M60.1765 -0.00195312H58.2354V37.998H60.1765V-0.00195312Z" fill="#F1EEEA"/>
<path d="M66.0003 -0.00195312H64.0591V37.998H66.0003V-0.00195312Z" fill="#F1EEEA"/>
<path d="M69.8826 -0.00195312H67.9414V37.998H69.8826V-0.00195312Z" fill="#F1EEEA"/>
<path d="M81.5298 -0.00195312H73.7651V37.998H81.5298V-0.00195312Z" fill="#F1EEEA"/>
<path d="M87.3523 -0.00195312H85.4111V37.998H87.3523V-0.00195312Z" fill="#F1EEEA"/>
<path d="M93.1763 -0.00195312H89.2939V37.998H93.1763V-0.00195312Z" fill="#F1EEEA"/>
<path d="M102.883 -0.00195312H100.941V37.998H102.883V-0.00195312Z" fill="#F1EEEA"/>
<path d="M110.647 -0.00195312H106.765V37.998H110.647V-0.00195312Z" fill="#F1EEEA"/>
<path d="M122.294 -0.00195312H116.471V37.998H122.294V-0.00195312Z" fill="#F1EEEA"/>
<path d="M126.176 -0.00195312H124.235V37.998H126.176V-0.00195312Z" fill="#F1EEEA"/>
<path d="M132 -0.00195312H128.118V37.998H132V-0.00195312Z" fill="#F1EEEA"/>
</svg>
