<svg width="296" height="248" viewBox="0 0 296 248" fill="none" xmlns="http://www.w3.org/2000/svg">
<path fill-rule="evenodd" clip-rule="evenodd" d="M260.929 55.0008C260.895 55.0003 260.862 55 260.828 55C260.795 55 260.761 55.0003 260.728 55.0008H251H251V55.0011H290.314V55.0008H280.586C280.552 55.0003 280.519 55 280.485 55C280.452 55 280.418 55.0003 280.385 55.0008H261.275H260.929ZM290.314 55.0029V115.168H251L251 115.168H251L251 100.187L251 100.128L251 100.069L251 70.7263H251V100.128V115.168H251L251 115.17H260.822L260.828 115.17L260.835 115.17L280.039 115.17H280.482H280.485H280.489H290.314H290.314V99.4445H290.314L290.314 55.0029H290.314ZM280.039 85.0683L280.039 85.1017C274.966 85.4487 270.894 91.681 270.667 99.4445H270.647C270.42 91.6812 266.348 85.4491 261.275 85.1017V85.0683C266.348 84.721 270.42 78.4893 270.647 70.7263H270.667C270.894 78.4895 274.966 84.7213 280.039 85.0683Z" fill="#1E1E1E"/>
<path fill-rule="evenodd" clip-rule="evenodd" d="M274.985 81.1888C274.949 81.1879 274.912 81.1875 274.876 81.1875C274.839 81.1875 274.803 81.1879 274.766 81.1888H267.834V81.1895H267.834L267.834 81.1895V124.295H275.195V124.294L288.638 124.294H288.955H288.958H288.961H295.999H296L296 81.1892H296V81.1888H289.068C289.031 81.1879 288.995 81.1875 288.958 81.1875C288.922 81.1875 288.885 81.1879 288.849 81.1888H274.985ZM274.985 81.1888H274.766C274.757 81.189 274.748 81.1892 274.739 81.1895H267.834V124.294H296V81.1892L289.083 81.1892C289.078 81.189 289.073 81.1889 289.068 81.1888H288.849C288.844 81.1889 288.838 81.189 288.833 81.1892L288.638 81.1892V81.1895H275.195H275.012C275.003 81.1892 274.994 81.189 274.985 81.1888ZM288.638 102.729L288.638 102.753C285.004 103.001 282.087 107.466 281.924 113.028H281.91C281.747 107.466 278.83 103.001 275.195 102.753L275.195 102.729C278.829 102.481 281.747 98.0168 281.91 92.4556H281.924C282.087 98.0167 285.005 102.481 288.638 102.729Z" fill="#1E1E1E"/>
<path d="M25.5293 108.434L25.5781 109.43C25.793 109.059 26.0729 108.769 26.418 108.561C26.7695 108.352 27.1927 108.245 27.6875 108.238C27.9674 108.238 28.2181 108.271 28.4395 108.336C28.6673 108.395 28.8659 108.482 29.0352 108.6C29.1589 108.691 29.2695 108.801 29.3672 108.932C29.4714 109.062 29.5592 109.208 29.6309 109.371C29.722 109.221 29.8294 109.081 29.9531 108.951C30.0768 108.821 30.2103 108.707 30.3535 108.609C30.5358 108.499 30.7376 108.411 30.959 108.346C31.1868 108.281 31.4342 108.245 31.7012 108.238C32.0658 108.238 32.3945 108.294 32.6875 108.404C32.9805 108.508 33.2279 108.665 33.4297 108.873C33.651 109.107 33.8203 109.413 33.9375 109.791C34.0547 110.162 34.1133 110.602 34.1133 111.109V119H32.3945V111.09C32.3945 110.868 32.3685 110.673 32.3164 110.504C32.2643 110.335 32.1895 110.195 32.0918 110.084C31.9876 109.98 31.8574 109.902 31.7012 109.85C31.5514 109.798 31.3757 109.771 31.1738 109.771C30.959 109.771 30.7734 109.801 30.6172 109.859C30.4609 109.918 30.3307 109.996 30.2266 110.094C30.1224 110.198 30.041 110.318 29.9824 110.455C29.9238 110.585 29.8848 110.732 29.8652 110.895C29.8652 110.927 29.8652 110.96 29.8652 110.992C29.8652 111.018 29.8652 111.051 29.8652 111.09V119H28.1465V111.08C28.1465 110.859 28.1204 110.663 28.0684 110.494C28.0228 110.325 27.9479 110.185 27.8438 110.074C27.7461 109.97 27.6224 109.895 27.4727 109.85C27.3294 109.798 27.1602 109.771 26.9648 109.771C26.75 109.771 26.5612 109.798 26.3984 109.85C26.2422 109.895 26.1087 109.964 25.998 110.055C25.9134 110.126 25.8385 110.208 25.7734 110.299C25.7148 110.39 25.666 110.488 25.627 110.592V119H23.9082V108.434H25.5293ZM43.3789 119.195C42.6367 119.195 41.9531 119.068 41.3281 118.814C40.7096 118.561 40.179 118.206 39.7363 117.75C39.2936 117.294 38.9486 116.754 38.7012 116.129C38.4538 115.504 38.3301 114.824 38.3301 114.088V113.678C38.3301 112.825 38.4668 112.063 38.7402 111.393C39.0137 110.715 39.3783 110.143 39.834 109.674C40.2832 109.212 40.7943 108.857 41.3672 108.609C41.9466 108.362 42.5391 108.238 43.1445 108.238C43.9062 108.238 44.5703 108.372 45.1367 108.639C45.7096 108.899 46.1849 109.26 46.5625 109.723C46.9401 110.191 47.2201 110.742 47.4023 111.373C47.5911 112.005 47.6855 112.688 47.6855 113.424V114.234H40.1367V114.303C40.1823 114.817 40.2832 115.27 40.4395 115.66C40.6022 116.051 40.8236 116.396 41.1035 116.695C41.39 117.014 41.735 117.265 42.1387 117.447C42.5423 117.63 42.9883 117.721 43.4766 117.721C44.1211 117.721 44.694 117.59 45.1953 117.33C45.6966 117.07 46.1133 116.725 46.4453 116.295L47.5488 117.154C47.1973 117.688 46.6699 118.163 45.9668 118.58C45.2702 118.99 44.4076 119.195 43.3789 119.195ZM43.1445 109.723C42.7799 109.723 42.4349 109.791 42.1094 109.928C41.7839 110.058 41.4909 110.25 41.2305 110.504C40.9701 110.764 40.7487 111.083 40.5664 111.461C40.3906 111.832 40.2669 112.262 40.1953 112.75H45.8789V112.662C45.8789 112.337 45.8171 111.988 45.6934 111.617C45.5697 111.24 45.3971 110.914 45.1758 110.641C44.9544 110.367 44.6745 110.146 44.3359 109.977C44.0039 109.807 43.6068 109.723 43.1445 109.723ZM57.3906 119.195C56.6484 119.195 55.9648 119.068 55.3398 118.814C54.7214 118.561 54.1908 118.206 53.748 117.75C53.3053 117.294 52.9603 116.754 52.7129 116.129C52.4655 115.504 52.3418 114.824 52.3418 114.088V113.678C52.3418 112.825 52.4785 112.063 52.752 111.393C53.0254 110.715 53.39 110.143 53.8457 109.674C54.2949 109.212 54.806 108.857 55.3789 108.609C55.9583 108.362 56.5508 108.238 57.1562 108.238C57.918 108.238 58.582 108.372 59.1484 108.639C59.7214 108.899 60.1966 109.26 60.5742 109.723C60.9518 110.191 61.2318 110.742 61.4141 111.373C61.6029 112.005 61.6973 112.688 61.6973 113.424V114.234H54.1484V114.303C54.194 114.817 54.2949 115.27 54.4512 115.66C54.6139 116.051 54.8353 116.396 55.1152 116.695C55.4017 117.014 55.7467 117.265 56.1504 117.447C56.554 117.63 57 117.721 57.4883 117.721C58.1328 117.721 58.7057 117.59 59.207 117.33C59.7083 117.07 60.125 116.725 60.457 116.295L61.5605 117.154C61.209 117.688 60.6816 118.163 59.9785 118.58C59.2819 118.99 58.4193 119.195 57.3906 119.195ZM57.1562 109.723C56.7917 109.723 56.4466 109.791 56.1211 109.928C55.7956 110.058 55.5026 110.25 55.2422 110.504C54.9818 110.764 54.7604 111.083 54.5781 111.461C54.4023 111.832 54.2786 112.262 54.207 112.75H59.8906V112.662C59.8906 112.337 59.8288 111.988 59.7051 111.617C59.5814 111.24 59.4089 110.914 59.1875 110.641C58.9661 110.367 58.6862 110.146 58.3477 109.977C58.0156 109.807 57.6185 109.723 57.1562 109.723ZM71.0117 105.875V108.434H75.0352V109.83H71.0117V115.572C71.0117 115.982 71.0638 116.321 71.168 116.588C71.2721 116.855 71.4154 117.066 71.5977 117.223C71.7799 117.385 71.9883 117.499 72.2227 117.564C72.4635 117.63 72.7174 117.662 72.9844 117.662C73.1797 117.662 73.3815 117.652 73.5898 117.633C73.7982 117.607 74.0033 117.577 74.2051 117.545C74.4004 117.512 74.5827 117.48 74.752 117.447C74.9277 117.408 75.071 117.376 75.1816 117.35L75.4355 118.629C75.2858 118.72 75.1035 118.801 74.8887 118.873C74.6738 118.938 74.4395 118.993 74.1855 119.039C73.9316 119.091 73.6615 119.13 73.375 119.156C73.0951 119.182 72.8151 119.195 72.5352 119.195C72.0664 119.195 71.627 119.13 71.2168 119C70.8132 118.863 70.4616 118.648 70.1621 118.355C69.8626 118.069 69.625 117.698 69.4492 117.242C69.2799 116.78 69.1953 116.223 69.1953 115.572V109.83H66.4219V108.434H69.1953V105.875H71.0117ZM94.25 113.619C94.25 112.857 94.3607 112.151 94.582 111.5C94.8034 110.842 95.1224 110.273 95.5391 109.791C95.9492 109.309 96.4505 108.932 97.043 108.658C97.6354 108.378 98.3027 108.238 99.0449 108.238C99.7936 108.238 100.464 108.378 101.057 108.658C101.656 108.932 102.163 109.309 102.58 109.791C102.99 110.273 103.306 110.842 103.527 111.5C103.749 112.151 103.859 112.857 103.859 113.619V113.834C103.859 114.596 103.749 115.302 103.527 115.953C103.306 116.604 102.99 117.171 102.58 117.652C102.163 118.134 101.659 118.512 101.066 118.785C100.474 119.059 99.8066 119.195 99.0645 119.195C98.3158 119.195 97.6419 119.059 97.043 118.785C96.4505 118.512 95.9492 118.134 95.5391 117.652C95.1224 117.171 94.8034 116.604 94.582 115.953C94.3607 115.302 94.25 114.596 94.25 113.834V113.619ZM96.0566 113.834C96.0566 114.355 96.1185 114.853 96.2422 115.328C96.3659 115.797 96.5547 116.21 96.8086 116.568C97.056 116.926 97.3685 117.21 97.7461 117.418C98.1237 117.626 98.5632 117.73 99.0645 117.73C99.5592 117.73 99.9922 117.626 100.363 117.418C100.741 117.21 101.057 116.926 101.311 116.568C101.558 116.21 101.743 115.797 101.867 115.328C101.991 114.853 102.053 114.355 102.053 113.834V113.619C102.053 113.105 101.988 112.613 101.857 112.145C101.734 111.669 101.548 111.253 101.301 110.895C101.047 110.536 100.731 110.253 100.354 110.045C99.9824 109.83 99.5462 109.723 99.0449 109.723C98.5436 109.723 98.1074 109.83 97.7363 110.045C97.3652 110.253 97.056 110.536 96.8086 110.895C96.5547 111.253 96.3659 111.669 96.2422 112.145C96.1185 112.613 96.0566 113.105 96.0566 113.619V113.834ZM115.732 119L115.625 117.545C115.273 118.066 114.834 118.473 114.307 118.766C113.779 119.052 113.171 119.195 112.48 119.195C111.927 119.195 111.426 119.111 110.977 118.941C110.527 118.766 110.143 118.495 109.824 118.131C109.505 117.766 109.258 117.304 109.082 116.744C108.913 116.178 108.828 115.501 108.828 114.713V108.434H110.635V114.732C110.635 115.305 110.68 115.781 110.771 116.158C110.863 116.536 110.999 116.835 111.182 117.057C111.364 117.285 111.585 117.444 111.846 117.535C112.113 117.626 112.419 117.672 112.764 117.672C113.167 117.672 113.529 117.626 113.848 117.535C114.167 117.438 114.443 117.304 114.678 117.135C114.873 116.998 115.042 116.835 115.186 116.646C115.335 116.451 115.459 116.24 115.557 116.012V108.434H117.373V119H115.732ZM129.705 108.238C130.037 108.238 130.382 108.261 130.74 108.307C131.105 108.352 131.378 108.414 131.561 108.492L131.316 110.26C130.965 110.182 130.63 110.126 130.311 110.094C129.998 110.055 129.669 110.035 129.324 110.035C128.882 110.035 128.481 110.09 128.123 110.201C127.765 110.305 127.452 110.462 127.186 110.67C126.945 110.852 126.733 111.077 126.551 111.344C126.375 111.604 126.229 111.897 126.111 112.223V119H124.295V108.434H126.014L126.092 109.85L126.102 110.113C126.531 109.534 127.046 109.078 127.645 108.746C128.25 108.408 128.937 108.238 129.705 108.238ZM150.795 123.062V108.434H152.445L152.533 109.586C152.676 109.404 152.833 109.241 153.002 109.098C153.171 108.948 153.354 108.821 153.549 108.717C153.822 108.561 154.125 108.443 154.457 108.365C154.796 108.281 155.157 108.238 155.541 108.238C156.218 108.238 156.817 108.372 157.338 108.639C157.859 108.906 158.295 109.277 158.646 109.752C158.998 110.227 159.265 110.797 159.447 111.461C159.63 112.118 159.721 112.841 159.721 113.629V113.834C159.721 114.589 159.63 115.296 159.447 115.953C159.265 116.604 158.998 117.171 158.646 117.652C158.295 118.134 157.859 118.512 157.338 118.785C156.824 119.059 156.234 119.195 155.57 119.195C155.167 119.195 154.789 119.153 154.438 119.068C154.092 118.984 153.78 118.863 153.5 118.707C153.331 118.609 153.171 118.502 153.021 118.385C152.872 118.261 152.732 118.128 152.602 117.984V123.062H150.795ZM157.914 113.629C157.914 113.115 157.855 112.626 157.738 112.164C157.628 111.695 157.455 111.282 157.221 110.924C156.98 110.572 156.677 110.292 156.312 110.084C155.948 109.876 155.512 109.771 155.004 109.771C154.724 109.771 154.464 109.804 154.223 109.869C153.988 109.934 153.777 110.029 153.588 110.152C153.38 110.276 153.194 110.429 153.031 110.611C152.868 110.794 152.725 110.995 152.602 111.217V116.305C152.712 116.5 152.839 116.682 152.982 116.852C153.126 117.021 153.288 117.164 153.471 117.281C153.679 117.418 153.91 117.525 154.164 117.604C154.424 117.682 154.711 117.721 155.023 117.721C155.525 117.721 155.958 117.617 156.322 117.408C156.687 117.193 156.986 116.907 157.221 116.549C157.455 116.191 157.628 115.777 157.738 115.309C157.855 114.84 157.914 114.348 157.914 113.834V113.629ZM171.76 119C171.688 118.863 171.63 118.694 171.584 118.492C171.545 118.284 171.516 118.069 171.496 117.848C171.314 118.03 171.109 118.202 170.881 118.365C170.66 118.528 170.415 118.671 170.148 118.795C169.875 118.919 169.585 119.016 169.279 119.088C168.973 119.16 168.648 119.195 168.303 119.195C167.743 119.195 167.235 119.114 166.779 118.951C166.33 118.788 165.949 118.567 165.637 118.287C165.318 118.014 165.07 117.688 164.895 117.311C164.725 116.926 164.641 116.513 164.641 116.07C164.641 115.491 164.755 114.983 164.982 114.547C165.217 114.111 165.546 113.746 165.969 113.453C166.392 113.167 166.9 112.952 167.492 112.809C168.091 112.665 168.758 112.594 169.494 112.594H171.467V111.764C171.467 111.445 171.408 111.158 171.291 110.904C171.174 110.65 171.008 110.432 170.793 110.25C170.578 110.074 170.314 109.938 170.002 109.84C169.696 109.742 169.351 109.693 168.967 109.693C168.609 109.693 168.286 109.739 168 109.83C167.72 109.921 167.482 110.042 167.287 110.191C167.092 110.341 166.939 110.52 166.828 110.729C166.724 110.93 166.672 111.142 166.672 111.363H164.855C164.862 110.979 164.96 110.602 165.148 110.23C165.344 109.859 165.624 109.524 165.988 109.225C166.346 108.932 166.783 108.694 167.297 108.512C167.818 108.329 168.407 108.238 169.064 108.238C169.663 108.238 170.22 108.313 170.734 108.463C171.249 108.606 171.695 108.824 172.072 109.117C172.443 109.417 172.736 109.788 172.951 110.23C173.166 110.673 173.273 111.191 173.273 111.783V116.695C173.273 117.047 173.306 117.421 173.371 117.818C173.436 118.209 173.527 118.551 173.645 118.844V119H171.76ZM168.566 117.623C168.918 117.623 169.247 117.577 169.553 117.486C169.859 117.395 170.139 117.275 170.393 117.125C170.64 116.975 170.855 116.806 171.037 116.617C171.219 116.422 171.363 116.22 171.467 116.012V113.873H169.787C169.162 113.873 168.615 113.928 168.146 114.039C167.684 114.143 167.316 114.306 167.043 114.527C166.848 114.684 166.698 114.869 166.594 115.084C166.496 115.299 166.447 115.543 166.447 115.816C166.447 116.077 166.49 116.318 166.574 116.539C166.665 116.76 166.799 116.949 166.975 117.105C167.15 117.268 167.372 117.395 167.639 117.486C167.906 117.577 168.215 117.623 168.566 117.623ZM185.752 108.238C186.084 108.238 186.429 108.261 186.787 108.307C187.152 108.352 187.425 108.414 187.607 108.492L187.363 110.26C187.012 110.182 186.676 110.126 186.357 110.094C186.045 110.055 185.716 110.035 185.371 110.035C184.928 110.035 184.528 110.09 184.17 110.201C183.812 110.305 183.499 110.462 183.232 110.67C182.992 110.852 182.78 111.077 182.598 111.344C182.422 111.604 182.275 111.897 182.158 112.223V119H180.342V108.434H182.061L182.139 109.85L182.148 110.113C182.578 109.534 183.092 109.078 183.691 108.746C184.297 108.408 184.984 108.238 185.752 108.238ZM197.117 105.875V108.434H201.141V109.83H197.117V115.572C197.117 115.982 197.169 116.321 197.273 116.588C197.378 116.855 197.521 117.066 197.703 117.223C197.885 117.385 198.094 117.499 198.328 117.564C198.569 117.63 198.823 117.662 199.09 117.662C199.285 117.662 199.487 117.652 199.695 117.633C199.904 117.607 200.109 117.577 200.311 117.545C200.506 117.512 200.688 117.48 200.857 117.447C201.033 117.408 201.176 117.376 201.287 117.35L201.541 118.629C201.391 118.72 201.209 118.801 200.994 118.873C200.779 118.938 200.545 118.993 200.291 119.039C200.037 119.091 199.767 119.13 199.48 119.156C199.201 119.182 198.921 119.195 198.641 119.195C198.172 119.195 197.732 119.13 197.322 119C196.919 118.863 196.567 118.648 196.268 118.355C195.968 118.069 195.73 117.698 195.555 117.242C195.385 116.78 195.301 116.223 195.301 115.572V109.83H192.527V108.434H195.301V105.875H197.117ZM206.852 119V108.434H208.473L208.6 109.996C208.756 109.775 208.925 109.573 209.107 109.391C209.296 109.202 209.495 109.039 209.703 108.902C210.016 108.694 210.354 108.535 210.719 108.424C211.09 108.307 211.48 108.245 211.891 108.238C212.444 108.238 212.945 108.316 213.395 108.473C213.85 108.629 214.238 108.873 214.557 109.205C214.876 109.537 215.12 109.96 215.289 110.475C215.465 110.982 215.553 111.588 215.553 112.291V119H213.746V112.33C213.746 111.861 213.694 111.464 213.59 111.139C213.486 110.813 213.333 110.549 213.131 110.348C212.923 110.146 212.669 109.999 212.369 109.908C212.076 109.817 211.738 109.771 211.354 109.771C211.021 109.771 210.712 109.82 210.426 109.918C210.139 110.009 209.876 110.136 209.635 110.299C209.439 110.442 209.257 110.608 209.088 110.797C208.925 110.986 208.782 111.194 208.658 111.422V119H206.852ZM225.531 119.195C224.789 119.195 224.105 119.068 223.48 118.814C222.862 118.561 222.331 118.206 221.889 117.75C221.446 117.294 221.101 116.754 220.854 116.129C220.606 115.504 220.482 114.824 220.482 114.088V113.678C220.482 112.825 220.619 112.063 220.893 111.393C221.166 110.715 221.531 110.143 221.986 109.674C222.436 109.212 222.947 108.857 223.52 108.609C224.099 108.362 224.691 108.238 225.297 108.238C226.059 108.238 226.723 108.372 227.289 108.639C227.862 108.899 228.337 109.26 228.715 109.723C229.092 110.191 229.372 110.742 229.555 111.373C229.743 112.005 229.838 112.688 229.838 113.424V114.234H222.289V114.303C222.335 114.817 222.436 115.27 222.592 115.66C222.755 116.051 222.976 116.396 223.256 116.695C223.542 117.014 223.887 117.265 224.291 117.447C224.695 117.63 225.141 117.721 225.629 117.721C226.273 117.721 226.846 117.59 227.348 117.33C227.849 117.07 228.266 116.725 228.598 116.295L229.701 117.154C229.35 117.688 228.822 118.163 228.119 118.58C227.423 118.99 226.56 119.195 225.531 119.195ZM225.297 109.723C224.932 109.723 224.587 109.791 224.262 109.928C223.936 110.058 223.643 110.25 223.383 110.504C223.122 110.764 222.901 111.083 222.719 111.461C222.543 111.832 222.419 112.262 222.348 112.75H228.031V112.662C228.031 112.337 227.969 111.988 227.846 111.617C227.722 111.24 227.549 110.914 227.328 110.641C227.107 110.367 226.827 110.146 226.488 109.977C226.156 109.807 225.759 109.723 225.297 109.723ZM241.799 108.238C242.131 108.238 242.476 108.261 242.834 108.307C243.199 108.352 243.472 108.414 243.654 108.492L243.41 110.26C243.059 110.182 242.723 110.126 242.404 110.094C242.092 110.055 241.763 110.035 241.418 110.035C240.975 110.035 240.575 110.09 240.217 110.201C239.859 110.305 239.546 110.462 239.279 110.67C239.038 110.852 238.827 111.077 238.645 111.344C238.469 111.604 238.322 111.897 238.205 112.223V119H236.389V108.434H238.107L238.186 109.85L238.195 110.113C238.625 109.534 239.139 109.078 239.738 108.746C240.344 108.408 241.031 108.238 241.799 108.238ZM255.908 116.197C255.908 115.982 255.866 115.79 255.781 115.621C255.697 115.445 255.553 115.286 255.352 115.143C255.15 114.999 254.883 114.869 254.551 114.752C254.219 114.628 253.805 114.518 253.311 114.42C252.705 114.296 252.152 114.146 251.65 113.971C251.156 113.795 250.732 113.583 250.381 113.336C250.023 113.095 249.746 112.812 249.551 112.486C249.355 112.154 249.258 111.77 249.258 111.334C249.258 110.904 249.359 110.504 249.561 110.133C249.762 109.755 250.046 109.426 250.41 109.146C250.775 108.867 251.208 108.645 251.709 108.482C252.217 108.32 252.773 108.238 253.379 108.238C254.03 108.238 254.616 108.323 255.137 108.492C255.658 108.661 256.1 108.896 256.465 109.195C256.829 109.495 257.109 109.846 257.305 110.25C257.507 110.647 257.607 111.077 257.607 111.539H255.801C255.801 111.311 255.742 111.09 255.625 110.875C255.508 110.654 255.345 110.458 255.137 110.289C254.928 110.12 254.674 109.983 254.375 109.879C254.082 109.775 253.75 109.723 253.379 109.723C252.995 109.723 252.656 109.765 252.363 109.85C252.077 109.934 251.839 110.048 251.65 110.191C251.455 110.335 251.309 110.501 251.211 110.689C251.113 110.878 251.064 111.074 251.064 111.275C251.064 111.484 251.104 111.669 251.182 111.832C251.26 111.995 251.396 112.141 251.592 112.271C251.781 112.402 252.035 112.519 252.354 112.623C252.679 112.727 253.089 112.828 253.584 112.926C254.235 113.062 254.818 113.222 255.332 113.404C255.846 113.58 256.279 113.792 256.631 114.039C256.982 114.293 257.249 114.586 257.432 114.918C257.62 115.25 257.715 115.634 257.715 116.07C257.715 116.539 257.607 116.965 257.393 117.35C257.184 117.734 256.891 118.062 256.514 118.336C256.136 118.609 255.684 118.821 255.156 118.971C254.629 119.12 254.053 119.195 253.428 119.195C252.712 119.195 252.074 119.101 251.514 118.912C250.954 118.717 250.482 118.46 250.098 118.141C249.707 117.828 249.408 117.464 249.199 117.047C248.997 116.63 248.896 116.197 248.896 115.748H250.703C250.729 116.119 250.827 116.432 250.996 116.686C251.172 116.939 251.39 117.145 251.65 117.301C251.904 117.457 252.188 117.568 252.5 117.633C252.812 117.698 253.122 117.73 253.428 117.73C253.91 117.73 254.329 117.675 254.688 117.564C255.046 117.447 255.326 117.288 255.527 117.086C255.651 116.962 255.745 116.826 255.811 116.676C255.876 116.526 255.908 116.367 255.908 116.197Z" fill="black"/>
<path d="M247.652 47.1797C252.069 53.3419 253.445 61.3414 252.026 70.6411C250.606 79.9472 246.394 90.4869 239.728 101.607C226.398 123.844 203.359 148.233 173.748 169.456C144.138 190.68 113.641 204.664 88.2998 210.144C75.6277 212.884 64.2935 213.487 55.0245 211.842C45.7618 210.199 38.6284 206.326 34.2117 200.163C29.795 194.001 28.4187 186.002 29.8376 176.702C31.2575 167.396 35.4698 156.856 42.1357 145.736C55.4657 123.499 78.5052 99.11 108.116 77.8868C137.726 56.6635 168.223 42.6797 193.564 37.1997C206.236 34.4593 217.57 33.856 226.839 35.5008C236.102 37.1445 243.235 41.0176 247.652 47.1797Z" stroke="#1E1E1E" stroke-width="2"/>
</svg>
