<svg width="563.875" height="532.933" viewBox="0 0 563.875 532.933" fill="none" xmlns="http://www.w3.org/2000/svg">
<path id="Vector" d="M235.726 0.630859C241.311 15.2333 248.692 27.5335 259.629 35.1611C270.688 42.8739 285.304 45.7568 305.182 41.542H502.009L552.343 195.61L502.073 232.988L501.358 233.521L502.185 233.854L532.626 246.124L563.332 399.77L482.033 480.95L481.851 481.133L481.894 481.388L490.503 531.881L429.248 491.475L429.123 491.392H338.36L338.215 491.533L318.238 510.927L297.848 470.965L297.741 470.757L297.513 470.705L294.764 470.07C237.305 456.5 195.921 427.926 154.48 395.733L153.931 395.306L153.701 395.964L142.122 429.192L113.539 389.176L113.464 389.07L113.347 389.015L43.1738 355.685C15.2997 256.995 7.38014 169.422 0.52832 82.2979L235.726 0.630859Z" stroke="black"/>
</svg>
