<svg width="30.6527" height="40.8702" viewBox="0 0 30.6527 40.8702" fill="none" xmlns="http://www.w3.org/2000/svg">
<path d="M15.3263 9.48633C8.82692 9.48633 3.55737 14.7559 3.55737 21.2553C3.55737 23.8145 4.3964 26.1629 5.79102 28.0862C5.81603 28.1323 5.81996 28.1838 5.8484 28.2279L13.6944 39.9969C14.0582 40.5426 14.6712 40.8702 15.3263 40.8702C15.9815 40.8702 16.5944 40.5426 16.9583 39.9969L24.8043 28.2279C24.8332 28.1838 24.8366 28.1323 24.8616 28.0862C26.2563 26.1629 27.0953 23.8145 27.0953 21.2553C27.0953 14.7559 21.8257 9.48633 15.3263 9.48633ZM15.3263 25.1783C13.1599 25.1783 11.4033 23.4218 11.4033 21.2553C11.4033 19.0888 13.1599 17.3323 15.3263 17.3323C17.4928 17.3323 19.2493 19.0888 19.2493 21.2553C19.2493 23.4218 17.4928 25.1783 15.3263 25.1783Z" fill="#F55718"/>
</svg>
