<?xml version="1.0" encoding="UTF-8"?>
<svg id="Layer_1" data-name="Layer 1" xmlns="http://www.w3.org/2000/svg" role="img" viewBox="0 0 181.56 50.1">
  <defs>
    <style>
      .cls-1 {
        fill: #1e1e1e;
      }
    </style>
  </defs>
  <g>
    <path class="cls-1" d="m42.31,4.5c-.84-.56-1.71-1.07-2.59-1.53l-6.35,4.71c-1.47-.47-2.98-.78-4.5-.91L24.84,0c-.94.08-1.88.21-2.8.39-1.04.2-2.07.46-3.09.78l-1.16,7.8c-1.35.7-2.62,1.55-3.81,2.55l-7.66-1.94c-.62.73-1.2,1.49-1.75,2.31-.02.03-.04.06-.06.09-.56.84-1.07,1.71-1.53,2.59l4.71,6.35c-.47,1.48-.78,2.99-.91,4.5L0,29.43c.08.98.23,1.99.42,2.95l14.53-2.82c-.62-3.13-.05-6.5,1.86-9.36,0-.01.02-.02.03-.03,1.93-2.86,4.85-4.66,8-5.26,3.09-.58,6.41,0,9.23,1.88.04.03.07.06.11.09l8.3-12.27c-.06-.04-.11-.08-.17-.12"/>
    <path class="cls-1" d="m20.22,37.47c-2.85-1.91-4.66-4.79-5.27-7.91L.41,32.36c.2,1,.45,2,.75,2.97l7.81,1.16c.7,1.35,1.55,2.63,2.55,3.81l-1.94,7.66c.75.63,1.53,1.23,2.36,1.79l8.31-12.27s-.02,0-.02-.01"/>
  </g>
  <g>
    <g>
      <polygon class="cls-1" points="62.27 23.28 58.78 23.28 50.34 9.39 50.34 14.22 50.34 23.28 47.76 23.28 47.76 5.85 51.21 5.85 59.66 19.67 59.66 14.98 59.66 5.85 62.27 5.85 62.27 23.28"/>
      <polygon class="cls-1" points="105.66 23.29 102.17 23.29 93.73 9.4 93.73 14.23 93.73 23.29 91.15 23.29 91.15 5.86 94.6 5.86 103.05 19.67 103.05 14.99 103.05 5.86 105.66 5.86 105.66 23.29"/>
      <polygon class="cls-1" points="76.05 23.28 63.82 23.28 63.82 21.3 67.82 15.39 65.61 15.39 67.37 13 69.43 13 72.61 8.3 63.82 8.3 63.82 5.85 76.05 5.85 76.05 7.86 72.55 13 74.66 13 73.06 15.39 70.93 15.39 67.23 20.84 76.05 20.84 76.05 23.28"/>
      <polygon class="cls-1" points="83.61 13.02 87.74 5.86 90.7 5.87 85.03 15.41 85.03 23.29 82.17 23.29 82.17 15.41 76.54 5.87 79.49 5.86 83.61 13.02"/>
      <rect class="cls-1" x="108.51" y="5.85" width="2.85" height="17.42"/>
      <path class="cls-1" d="m128.64,15.4v7.89h-2.85V5.87h4.92c2.25,0,3.91.42,4.99,1.26,1.08.84,1.62,2.11,1.62,3.81,0,2.17-1.13,3.14-3.39,4.06l4.93,8.29h-3.24l-4.73-7.89h-2.26Zm0-2.38h1.98c1.33,0,2.29-.21,2.88-.62.6-.41.89-1.02.89-1.83s-.32-1.41-.97-1.77c-.64-.36-1.61-.54-2.91-.54h-1.88v4.74Z"/>
      <polygon class="cls-1" points="164.99 23.29 161.69 23.29 156.94 15.4 154.54 18.94 154.54 23.29 151.69 23.29 151.69 5.87 154.54 5.87 154.54 14.19 160.15 5.86 163.38 5.86 158.54 13.01 164.99 23.29"/>
      <polygon class="cls-1" points="174.55 20.87 174.55 15.39 181.56 15.4 181.56 13.01 174.55 13.01 174.55 8.27 181.56 8.27 181.56 5.86 171.7 5.86 171.7 23.28 179.92 23.28 181.56 20.87 174.55 20.87"/>
      <polygon class="cls-1" points="124.06 20.86 117.06 20.86 117.06 15.39 124.06 15.39 124.06 13.01 117.06 13.01 117.06 8.26 124.06 8.26 124.06 5.85 114.21 5.85 114.21 23.28 122.43 23.28 124.06 20.86"/>
      <polygon class="cls-1" points="42.06 10.07 42.06 23.28 44.91 23.28 44.91 5.85 42.06 10.07"/>
      <polygon class="cls-1" points="166 10.08 166 23.29 168.85 23.29 168.85 5.86 166 10.08"/>
      <path class="cls-1" d="m149.81,16.5c-.28-.58-.71-1.1-1.31-1.56-.6-.46-1.53-.96-2.81-1.49-.08-.03-.14-.06-.22-.09-1.01-.42-1.74-.77-2.14-1.04-.44-.29-.75-.59-.94-.91-.19-.32-.29-.71-.29-1.16,0-.66.24-1.19.71-1.59.48-.4,1.18-.6,2.1-.6,1.07,0,2.29.27,3.62.78l1.44-2.12c-1.65-.73-3.31-1.1-4.98-1.1s-3.13.42-4.16,1.25-1.55,1.98-1.55,3.43c0,1.16.33,2.15.98,2.98.65.83,1.77,1.56,3.36,2.21,1.54.62,2.56,1.16,3.05,1.61.49.45.74,1,.74,1.66,0,.72-.27,1.3-.8,1.73-.54.43-1.37.64-2.5.64-.77,0-1.6-.11-2.5-.32-.34-.08-.68-.19-1.01-.29l-1.45,2.14c1.24.59,2.83.88,4.76.88s3.52-.44,4.64-1.32c1.12-.88,1.68-2.1,1.68-3.65,0-.79-.14-1.47-.42-2.05"/>
    </g>
    <g>
      <g>
        <path class="cls-1" d="m47.37,43.42c.75,0,1.4-.06,1.96-.19v.95c-.57.19-1.23.29-1.98.29-1.14,0-1.99-.31-2.53-.92-.54-.61-.82-1.57-.82-2.88v-8.37h-1.92v-.69l1.92-.54.6-2.93h.61v3.13h3.8v1.03h-3.8v8.2c0,.99.17,1.73.52,2.2.35.48.9.72,1.64.72"/>
        <path class="cls-1" d="m63.36,44.23l-.3-2.05h-.1c-.65.83-1.32,1.42-2.01,1.77-.69.35-1.5.52-2.44.52-1.27,0-2.26-.33-2.97-.98-.71-.65-1.06-1.55-1.06-2.7,0-1.26.53-2.25,1.58-2.94,1.05-.7,2.58-1.07,4.57-1.11l2.47-.07v-.86c0-1.23-.25-2.16-.75-2.79-.5-.63-1.31-.94-2.42-.94-1.2,0-2.44.33-3.73,1l-.44-1.02c1.42-.67,2.83-1,4.22-1s2.49.37,3.19,1.11c.7.74,1.05,1.89,1.05,3.46v8.62h-.87Zm-4.77-.83c1.38,0,2.47-.39,3.27-1.19.8-.79,1.2-1.89,1.2-3.29v-1.28l-2.26.1c-1.82.09-3.12.37-3.89.85-.78.48-1.16,1.23-1.16,2.25,0,.81.25,1.44.75,1.89.5.45,1.2.67,2.1.67"/>
        <path class="cls-1" d="m76.89,31.03c.55,0,1.14.06,1.76.17l-.23,1.13c-.54-.13-1.1-.2-1.68-.2-1.1,0-2.01.47-2.72,1.41-.71.94-1.06,2.12-1.06,3.55v7.15h-1.18v-12.96h1l.12,2.34h.08c.53-.95,1.1-1.62,1.7-2.01.6-.39,1.33-.58,2.19-.58"/>
        <path class="cls-1" d="m94.77,31.28v.82l-2.68.17c.72.89,1.07,1.87,1.07,2.93,0,1.25-.42,2.26-1.25,3.03-.83.78-1.94,1.16-3.34,1.16-.59,0-1-.02-1.24-.07-.47.25-.83.54-1.07.87-.25.33-.37.69-.37,1.06,0,.41.16.72.47.91.31.19.84.29,1.58.29h2.26c1.41,0,2.48.28,3.23.85.75.57,1.12,1.41,1.12,2.52,0,1.37-.55,2.42-1.66,3.16-1.11.74-2.69,1.11-4.74,1.11-1.63,0-2.89-.31-3.78-.94-.89-.63-1.34-1.5-1.34-2.62,0-.89.28-1.63.83-2.22.55-.59,1.3-.99,2.25-1.2-.39-.17-.7-.4-.94-.71-.23-.31-.35-.66-.35-1.05,0-.87.55-1.63,1.66-2.29-.75-.31-1.34-.8-1.76-1.46-.42-.66-.63-1.42-.63-2.28,0-1.29.41-2.33,1.23-3.12.82-.78,1.93-1.17,3.33-1.17.85,0,1.51.08,1.98.25h4.15Zm-10.49,15.15c0,1.78,1.32,2.67,3.97,2.67,3.4,0,5.1-1.08,5.1-3.25,0-.78-.27-1.34-.8-1.69-.53-.35-1.39-.52-2.59-.52h-2.12c-2.37,0-3.56.93-3.56,2.8m.99-11.11c0,1,.3,1.78.91,2.33.61.55,1.42.83,2.44.83,1.08,0,1.91-.27,2.48-.82.58-.55.86-1.34.86-2.38,0-1.1-.3-1.93-.89-2.48-.59-.55-1.42-.83-2.48-.83s-1.85.3-2.44.89c-.59.59-.89,1.42-.89,2.47"/>
        <path class="cls-1" d="m100.63,27.68c0-.76.25-1.14.75-1.14.25,0,.44.1.58.3.14.2.21.48.21.85s-.07.64-.21.85c-.14.21-.33.31-.58.31-.5,0-.75-.39-.75-1.16m1.35,16.55h-1.18v-12.96h1.18v12.96Z"/>
      </g>
      <g>
        <path class="cls-1" d="m116.04,44.47c-2,0-3.45-.75-4.36-2.24h-.08l.04,1c.03.59.05,1.23.05,1.93v4.93h-1.18v-18.82h1l.23,1.85h.07c.89-1.4,2.31-2.1,4.27-2.1,1.75,0,3.08.57,4,1.72.92,1.15,1.38,2.82,1.38,5.01s-.48,3.78-1.45,4.95c-.97,1.17-2.28,1.76-3.95,1.76m-.02-1.05c1.33,0,2.35-.49,3.08-1.48.73-.99,1.09-2.36,1.09-4.14,0-3.81-1.37-5.71-4.12-5.71-1.51,0-2.62.42-3.33,1.25-.71.83-1.06,2.18-1.06,4.06v.38c0,2.03.34,3.47,1.02,4.34.68.87,1.78,1.3,3.32,1.3"/>
        <path class="cls-1" d="m133.49,31.03c.55,0,1.14.06,1.76.17l-.23,1.13c-.54-.13-1.1-.2-1.68-.2-1.1,0-2.01.47-2.72,1.41-.71.94-1.06,2.12-1.06,3.55v7.15h-1.18v-12.96h1l.12,2.34h.08c.53-.95,1.1-1.62,1.7-2.01.6-.39,1.33-.58,2.19-.58"/>
        <path class="cls-1" d="m149.12,44.23l-.3-2.05h-.1c-.65.83-1.32,1.42-2.01,1.77-.69.35-1.5.52-2.44.52-1.27,0-2.26-.33-2.97-.98-.71-.65-1.06-1.55-1.06-2.7,0-1.26.53-2.25,1.58-2.94,1.05-.7,2.58-1.07,4.57-1.11l2.47-.07v-.86c0-1.23-.25-2.16-.75-2.79-.5-.63-1.31-.94-2.42-.94-1.2,0-2.44.33-3.73,1l-.44-1.02c1.42-.67,2.83-1,4.22-1s2.49.37,3.19,1.11c.7.74,1.05,1.89,1.05,3.46v8.62h-.87Zm-4.77-.83c1.38,0,2.47-.39,3.27-1.19.8-.79,1.2-1.89,1.2-3.29v-1.28l-2.26.1c-1.82.09-3.12.37-3.89.85-.78.48-1.16,1.23-1.16,2.25,0,.81.25,1.44.75,1.89.5.45,1.2.67,2.1.67"/>
        <path class="cls-1" d="m162.73,44.47c-1.85,0-3.3-.58-4.35-1.75-1.05-1.17-1.57-2.8-1.57-4.89s.54-3.82,1.63-5.01c1.09-1.2,2.58-1.79,4.47-1.79,1.12,0,2.19.2,3.22.58l-.32,1.05c-1.12-.37-2.09-.56-2.92-.56-1.59,0-2.79.49-3.61,1.47-.82.98-1.23,2.39-1.23,4.24,0,1.75.41,3.12,1.23,4.1.82.99,1.96,1.48,3.43,1.48,1.18,0,2.27-.21,3.28-.63v1.1c-.83.41-1.91.61-3.25.61"/>
        <path class="cls-1" d="m170.35,31.28h1.22l2.74,7.27c.83,2.23,1.36,3.74,1.58,4.52h.07c.33-1.03.88-2.55,1.63-4.59l2.74-7.2h1.22l-5.8,15.05c-.47,1.22-.86,2.05-1.18,2.48-.32.43-.69.75-1.11.97-.42.21-.94.32-1.54.32-.45,0-.96-.08-1.51-.25v-1.03c.46.13.96.19,1.49.19.4,0,.76-.1,1.07-.29.31-.19.59-.49.84-.89.25-.4.54-1.04.87-1.91.33-.87.54-1.44.64-1.7l-4.96-12.95Z"/>
      </g>
    </g>
  </g>
</svg>