<svg width="56" height="56" viewBox="0 0 56 56" fill="none" xmlns="http://www.w3.org/2000/svg">
<path d="M12.6668 0.667969H11.3335V2.0013H12.6668V0.667969Z" fill="#1E1E1E"/>
<path d="M15.3338 0.667969H14.0005V2.0013H15.3338V0.667969Z" fill="#1E1E1E"/>
<path d="M16.6673 0.667969H15.334V2.0013H16.6673V0.667969Z" fill="#1E1E1E"/>
<path d="M18.0003 0.667969H16.667V2.0013H18.0003V0.667969Z" fill="#1E1E1E"/>
<path d="M22.0003 0.667969H20.667V2.0013H22.0003V0.667969Z" fill="#1E1E1E"/>
<path d="M23.3333 0.667969H22V2.0013H23.3333V0.667969Z" fill="#1E1E1E"/>
<path d="M24.6668 0.667969H23.3335V2.0013H24.6668V0.667969Z" fill="#1E1E1E"/>
<path d="M26.0003 0.667969H24.667V2.0013H26.0003V0.667969Z" fill="#1E1E1E"/>
<path d="M30.0003 0.667969H28.667V2.0013H30.0003V0.667969Z" fill="#1E1E1E"/>
<path d="M31.3338 0.667969H30.0005V2.0013H31.3338V0.667969Z" fill="#1E1E1E"/>
<path d="M36.6668 0.667969H35.3335V2.0013H36.6668V0.667969Z" fill="#1E1E1E"/>
<path d="M42.0003 0.667969H40.667V2.0013H42.0003V0.667969Z" fill="#1E1E1E"/>
<path d="M14.0003 2.00195H12.667V3.33529H14.0003V2.00195Z" fill="#1E1E1E"/>
<path d="M16.6673 2.00195H15.334V3.33529H16.6673V2.00195Z" fill="#1E1E1E"/>
<path d="M19.3333 2.00195H18V3.33529H19.3333V2.00195Z" fill="#1E1E1E"/>
<path d="M23.3333 2.00195H22V3.33529H23.3333V2.00195Z" fill="#1E1E1E"/>
<path d="M24.6673 2.00195H23.334V3.33529H24.6673V2.00195Z" fill="#1E1E1E"/>
<path d="M28.6673 2.00195H27.334V3.33529H28.6673V2.00195Z" fill="#1E1E1E"/>
<path d="M30.0003 2.00195H28.667V3.33529H30.0003V2.00195Z" fill="#1E1E1E"/>
<path d="M31.3333 2.00195H30V3.33529H31.3333V2.00195Z" fill="#1E1E1E"/>
<path d="M32.6673 2.00195H31.334V3.33529H32.6673V2.00195Z" fill="#1E1E1E"/>
<path d="M35.3333 2.00195H34V3.33529H35.3333V2.00195Z" fill="#1E1E1E"/>
<path d="M36.6673 2.00195H35.334V3.33529H36.6673V2.00195Z" fill="#1E1E1E"/>
<path d="M40.6673 2.00195H39.334V3.33529H40.6673V2.00195Z" fill="#1E1E1E"/>
<path d="M12.6668 3.33398H11.3335V4.66732H12.6668V3.33398Z" fill="#1E1E1E"/>
<path d="M14.0003 3.33398H12.667V4.66732H14.0003V3.33398Z" fill="#1E1E1E"/>
<path d="M16.6673 3.33398H15.334V4.66732H16.6673V3.33398Z" fill="#1E1E1E"/>
<path d="M18.0003 3.33398H16.667V4.66732H18.0003V3.33398Z" fill="#1E1E1E"/>
<path d="M22.0003 3.33398H20.667V4.66732H22.0003V3.33398Z" fill="#1E1E1E"/>
<path d="M26.0003 3.33398H24.667V4.66732H26.0003V3.33398Z" fill="#1E1E1E"/>
<path d="M27.3338 3.33398H26.0005V4.66732H27.3338V3.33398Z" fill="#1E1E1E"/>
<path d="M28.6673 3.33398H27.334V4.66732H28.6673V3.33398Z" fill="#1E1E1E"/>
<path d="M32.6668 3.33398H31.3335V4.66732H32.6668V3.33398Z" fill="#1E1E1E"/>
<path d="M35.3333 3.33398H34V4.66732H35.3333V3.33398Z" fill="#1E1E1E"/>
<path d="M39.3338 3.33398H38.0005V4.66732H39.3338V3.33398Z" fill="#1E1E1E"/>
<path d="M43.3338 3.33398H42.0005V4.66732H43.3338V3.33398Z" fill="#1E1E1E"/>
<path d="M44.6668 3.33398H43.3335V4.66732H44.6668V3.33398Z" fill="#1E1E1E"/>
<path d="M14.0003 4.66797H12.667V6.0013H14.0003V4.66797Z" fill="#1E1E1E"/>
<path d="M16.6673 4.66797H15.334V6.0013H16.6673V4.66797Z" fill="#1E1E1E"/>
<path d="M18.0003 4.66797H16.667V6.0013H18.0003V4.66797Z" fill="#1E1E1E"/>
<path d="M19.3333 4.66797H18V6.0013H19.3333V4.66797Z" fill="#1E1E1E"/>
<path d="M28.6673 4.66797H27.334V6.0013H28.6673V4.66797Z" fill="#1E1E1E"/>
<path d="M31.3333 4.66797H30V6.0013H31.3333V4.66797Z" fill="#1E1E1E"/>
<path d="M38.0003 4.66797H36.667V6.0013H38.0003V4.66797Z" fill="#1E1E1E"/>
<path d="M42.0003 4.66797H40.667V6.0013H42.0003V4.66797Z" fill="#1E1E1E"/>
<path d="M43.3333 4.66797H42V6.0013H43.3333V4.66797Z" fill="#1E1E1E"/>
<path d="M44.6673 4.66797H43.334V6.0013H44.6673V4.66797Z" fill="#1E1E1E"/>
<path d="M12.6673 6.00195H11.334V7.33529H12.6673V6.00195Z" fill="#1E1E1E"/>
<path d="M15.3333 6.00195H14V7.33529H15.3333V6.00195Z" fill="#1E1E1E"/>
<path d="M19.3333 6.00195H18V7.33529H19.3333V6.00195Z" fill="#1E1E1E"/>
<path d="M20.6673 6.00195H19.334V7.33529H20.6673V6.00195Z" fill="#1E1E1E"/>
<path d="M22.0003 6.00195H20.667V7.33529H22.0003V6.00195Z" fill="#1E1E1E"/>
<path d="M23.3333 6.00195H22V7.33529H23.3333V6.00195Z" fill="#1E1E1E"/>
<path d="M27.3333 6.00195H26V7.33529H27.3333V6.00195Z" fill="#1E1E1E"/>
<path d="M28.6673 6.00195H27.334V7.33529H28.6673V6.00195Z" fill="#1E1E1E"/>
<path d="M32.6673 6.00195H31.334V7.33529H32.6673V6.00195Z" fill="#1E1E1E"/>
<path d="M34.0003 6.00195H32.667V7.33529H34.0003V6.00195Z" fill="#1E1E1E"/>
<path d="M39.3333 6.00195H38V7.33529H39.3333V6.00195Z" fill="#1E1E1E"/>
<path d="M42.0003 6.00195H40.667V7.33529H42.0003V6.00195Z" fill="#1E1E1E"/>
<path d="M43.3333 6.00195H42V7.33529H43.3333V6.00195Z" fill="#1E1E1E"/>
<path d="M44.6673 6.00195H43.334V7.33529H44.6673V6.00195Z" fill="#1E1E1E"/>
<path d="M16.6673 7.33398H15.334V8.66732H16.6673V7.33398Z" fill="#1E1E1E"/>
<path d="M18.0003 7.33398H16.667V8.66732H18.0003V7.33398Z" fill="#1E1E1E"/>
<path d="M19.3333 7.33398H18V8.66732H19.3333V7.33398Z" fill="#1E1E1E"/>
<path d="M20.6673 7.33398H19.334V8.66732H20.6673V7.33398Z" fill="#1E1E1E"/>
<path d="M22.0003 7.33398H20.667V8.66732H22.0003V7.33398Z" fill="#1E1E1E"/>
<path d="M30.0003 7.33398H28.667V8.66732H30.0003V7.33398Z" fill="#1E1E1E"/>
<path d="M31.3333 7.33398H30V8.66732H31.3333V7.33398Z" fill="#1E1E1E"/>
<path d="M32.6673 7.33398H31.334V8.66732H32.6673V7.33398Z" fill="#1E1E1E"/>
<path d="M36.6673 7.33398H35.334V8.66732H36.6673V7.33398Z" fill="#1E1E1E"/>
<path d="M39.3333 7.33398H38V8.66732H39.3333V7.33398Z" fill="#1E1E1E"/>
<path d="M40.6673 7.33398H39.334V8.66732H40.6673V7.33398Z" fill="#1E1E1E"/>
<path d="M44.6673 7.33398H43.334V8.66732H44.6673V7.33398Z" fill="#1E1E1E"/>
<path d="M12.6673 8.66797H11.334V10.0013H12.6673V8.66797Z" fill="#1E1E1E"/>
<path d="M15.3333 8.66797H14V10.0013H15.3333V8.66797Z" fill="#1E1E1E"/>
<path d="M18.0003 8.66797H16.667V10.0013H18.0003V8.66797Z" fill="#1E1E1E"/>
<path d="M20.6673 8.66797H19.334V10.0013H20.6673V8.66797Z" fill="#1E1E1E"/>
<path d="M23.3333 8.66797H22V10.0013H23.3333V8.66797Z" fill="#1E1E1E"/>
<path d="M26.0003 8.66797H24.667V10.0013H26.0003V8.66797Z" fill="#1E1E1E"/>
<path d="M28.6673 8.66797H27.334V10.0013H28.6673V8.66797Z" fill="#1E1E1E"/>
<path d="M31.3333 8.66797H30V10.0013H31.3333V8.66797Z" fill="#1E1E1E"/>
<path d="M34.0003 8.66797H32.667V10.0013H34.0003V8.66797Z" fill="#1E1E1E"/>
<path d="M36.6673 8.66797H35.334V10.0013H36.6673V8.66797Z" fill="#1E1E1E"/>
<path d="M39.3333 8.66797H38V10.0013H39.3333V8.66797Z" fill="#1E1E1E"/>
<path d="M42.0003 8.66797H40.667V10.0013H42.0003V8.66797Z" fill="#1E1E1E"/>
<path d="M44.6673 8.66797H43.334V10.0013H44.6673V8.66797Z" fill="#1E1E1E"/>
<path d="M12.6673 10H11.334V11.3333H12.6673V10Z" fill="#1E1E1E"/>
<path d="M16.6673 10H15.334V11.3333H16.6673V10Z" fill="#1E1E1E"/>
<path d="M20.6673 10H19.334V11.3333H20.6673V10Z" fill="#1E1E1E"/>
<path d="M23.3333 10H22V11.3333H23.3333V10Z" fill="#1E1E1E"/>
<path d="M27.3333 10H26V11.3333H27.3333V10Z" fill="#1E1E1E"/>
<path d="M28.6673 10H27.334V11.3333H28.6673V10Z" fill="#1E1E1E"/>
<path d="M30.0003 10H28.667V11.3333H30.0003V10Z" fill="#1E1E1E"/>
<path d="M34.0003 10H32.667V11.3333H34.0003V10Z" fill="#1E1E1E"/>
<path d="M35.3333 10H34V11.3333H35.3333V10Z" fill="#1E1E1E"/>
<path d="M36.6673 10H35.334V11.3333H36.6673V10Z" fill="#1E1E1E"/>
<path d="M39.3333 10H38V11.3333H39.3333V10Z" fill="#1E1E1E"/>
<path d="M43.3333 10H42V11.3333H43.3333V10Z" fill="#1E1E1E"/>
<path d="M44.6673 10H43.334V11.3333H44.6673V10Z" fill="#1E1E1E"/>
<path d="M8.66732 11.3359H7.33398V12.6693H8.66732V11.3359Z" fill="#1E1E1E"/>
<path d="M10.0003 11.3359H8.66699V12.6693H10.0003V11.3359Z" fill="#1E1E1E"/>
<path d="M16.6673 11.3359H15.334V12.6693H16.6673V11.3359Z" fill="#1E1E1E"/>
<path d="M19.3333 11.3359H18V12.6693H19.3333V11.3359Z" fill="#1E1E1E"/>
<path d="M22.0003 11.3359H20.667V12.6693H22.0003V11.3359Z" fill="#1E1E1E"/>
<path d="M23.3333 11.3359H22V12.6693H23.3333V11.3359Z" fill="#1E1E1E"/>
<path d="M24.6673 11.3359H23.334V12.6693H24.6673V11.3359Z" fill="#1E1E1E"/>
<path d="M27.3333 11.3359H26V12.6693H27.3333V11.3359Z" fill="#1E1E1E"/>
<path d="M28.6673 11.3359H27.334V12.6693H28.6673V11.3359Z" fill="#1E1E1E"/>
<path d="M30.0003 11.3359H28.667V12.6693H30.0003V11.3359Z" fill="#1E1E1E"/>
<path d="M31.3333 11.3359H30V12.6693H31.3333V11.3359Z" fill="#1E1E1E"/>
<path d="M32.6673 11.3359H31.334V12.6693H32.6673V11.3359Z" fill="#1E1E1E"/>
<path d="M34.0003 11.3359H32.667V12.6693H34.0003V11.3359Z" fill="#1E1E1E"/>
<path d="M35.3333 11.3359H34V12.6693H35.3333V11.3359Z" fill="#1E1E1E"/>
<path d="M36.6673 11.3359H35.334V12.6693H36.6673V11.3359Z" fill="#1E1E1E"/>
<path d="M40.6673 11.3359H39.334V12.6693H40.6673V11.3359Z" fill="#1E1E1E"/>
<path d="M43.3333 11.3359H42V12.6693H43.3333V11.3359Z" fill="#1E1E1E"/>
<path d="M44.6673 11.3359H43.334V12.6693H44.6673V11.3359Z" fill="#1E1E1E"/>
<path d="M47.3333 11.3359H46V12.6693H47.3333V11.3359Z" fill="#1E1E1E"/>
<path d="M50.0003 11.3359H48.667V12.6693H50.0003V11.3359Z" fill="#1E1E1E"/>
<path d="M52.6673 11.3359H51.334V12.6693H52.6673V11.3359Z" fill="#1E1E1E"/>
<path d="M55.3333 11.3359H54V12.6693H55.3333V11.3359Z" fill="#1E1E1E"/>
<path d="M2.00033 12.668H0.666992V14.0013H2.00033V12.668Z" fill="#1E1E1E"/>
<path d="M3.33382 12.668H2.00049V14.0013H3.33382V12.668Z" fill="#1E1E1E"/>
<path d="M14.0003 12.668H12.667V14.0013H14.0003V12.668Z" fill="#1E1E1E"/>
<path d="M15.3338 12.668H14.0005V14.0013H15.3338V12.668Z" fill="#1E1E1E"/>
<path d="M16.6673 12.668H15.334V14.0013H16.6673V12.668Z" fill="#1E1E1E"/>
<path d="M18.0003 12.668H16.667V14.0013H18.0003V12.668Z" fill="#1E1E1E"/>
<path d="M20.6668 12.668H19.3335V14.0013H20.6668V12.668Z" fill="#1E1E1E"/>
<path d="M22.0003 12.668H20.667V14.0013H22.0003V12.668Z" fill="#1E1E1E"/>
<path d="M23.3333 12.668H22V14.0013H23.3333V12.668Z" fill="#1E1E1E"/>
<path d="M26.0003 12.668H24.667V14.0013H26.0003V12.668Z" fill="#1E1E1E"/>
<path d="M27.3338 12.668H26.0005V14.0013H27.3338V12.668Z" fill="#1E1E1E"/>
<path d="M28.6673 12.668H27.334V14.0013H28.6673V12.668Z" fill="#1E1E1E"/>
<path d="M30.0003 12.668H28.667V14.0013H30.0003V12.668Z" fill="#1E1E1E"/>
<path d="M31.3338 12.668H30.0005V14.0013H31.3338V12.668Z" fill="#1E1E1E"/>
<path d="M34.0003 12.668H32.667V14.0013H34.0003V12.668Z" fill="#1E1E1E"/>
<path d="M35.3333 12.668H34V14.0013H35.3333V12.668Z" fill="#1E1E1E"/>
<path d="M38.0003 12.668H36.667V14.0013H38.0003V12.668Z" fill="#1E1E1E"/>
<path d="M40.6673 12.668H39.334V14.0013H40.6673V12.668Z" fill="#1E1E1E"/>
<path d="M43.3338 12.668H42.0005V14.0013H43.3338V12.668Z" fill="#1E1E1E"/>
<path d="M48.6668 12.668H47.3335V14.0013H48.6668V12.668Z" fill="#1E1E1E"/>
<path d="M50.0003 12.668H48.667V14.0013H50.0003V12.668Z" fill="#1E1E1E"/>
<path d="M2.00033 14.002H0.666992V15.3353H2.00033V14.002Z" fill="#1E1E1E"/>
<path d="M3.33333 14.002H2V15.3353H3.33333V14.002Z" fill="#1E1E1E"/>
<path d="M4.66732 14.002H3.33398V15.3353H4.66732V14.002Z" fill="#1E1E1E"/>
<path d="M10.0003 14.002H8.66699V15.3353H10.0003V14.002Z" fill="#1E1E1E"/>
<path d="M11.3333 14.002H10V15.3353H11.3333V14.002Z" fill="#1E1E1E"/>
<path d="M14.0003 14.002H12.667V15.3353H14.0003V14.002Z" fill="#1E1E1E"/>
<path d="M18.0003 14.002H16.667V15.3353H18.0003V14.002Z" fill="#1E1E1E"/>
<path d="M19.3333 14.002H18V15.3353H19.3333V14.002Z" fill="#1E1E1E"/>
<path d="M22.0003 14.002H20.667V15.3353H22.0003V14.002Z" fill="#1E1E1E"/>
<path d="M24.6673 14.002H23.334V15.3353H24.6673V14.002Z" fill="#1E1E1E"/>
<path d="M26.0003 14.002H24.667V15.3353H26.0003V14.002Z" fill="#1E1E1E"/>
<path d="M27.3333 14.002H26V15.3353H27.3333V14.002Z" fill="#1E1E1E"/>
<path d="M28.6673 14.002H27.334V15.3353H28.6673V14.002Z" fill="#1E1E1E"/>
<path d="M32.6673 14.002H31.334V15.3353H32.6673V14.002Z" fill="#1E1E1E"/>
<path d="M38.0003 14.002H36.667V15.3353H38.0003V14.002Z" fill="#1E1E1E"/>
<path d="M44.6673 14.002H43.334V15.3353H44.6673V14.002Z" fill="#1E1E1E"/>
<path d="M46.0003 14.002H44.667V15.3353H46.0003V14.002Z" fill="#1E1E1E"/>
<path d="M48.6673 14.002H47.334V15.3353H48.6673V14.002Z" fill="#1E1E1E"/>
<path d="M50.0003 14.002H48.667V15.3353H50.0003V14.002Z" fill="#1E1E1E"/>
<path d="M3.33382 15.334H2.00049V16.6673H3.33382V15.334Z" fill="#1E1E1E"/>
<path d="M4.66732 15.334H3.33398V16.6673H4.66732V15.334Z" fill="#1E1E1E"/>
<path d="M6.00033 15.334H4.66699V16.6673H6.00033V15.334Z" fill="#1E1E1E"/>
<path d="M7.33382 15.334H6.00049V16.6673H7.33382V15.334Z" fill="#1E1E1E"/>
<path d="M8.66683 15.334H7.3335V16.6673H8.66683V15.334Z" fill="#1E1E1E"/>
<path d="M12.6668 15.334H11.3335V16.6673H12.6668V15.334Z" fill="#1E1E1E"/>
<path d="M15.3338 15.334H14.0005V16.6673H15.3338V15.334Z" fill="#1E1E1E"/>
<path d="M18.0003 15.334H16.667V16.6673H18.0003V15.334Z" fill="#1E1E1E"/>
<path d="M19.3338 15.334H18.0005V16.6673H19.3338V15.334Z" fill="#1E1E1E"/>
<path d="M22.0003 15.334H20.667V16.6673H22.0003V15.334Z" fill="#1E1E1E"/>
<path d="M23.3333 15.334H22V16.6673H23.3333V15.334Z" fill="#1E1E1E"/>
<path d="M26.0003 15.334H24.667V16.6673H26.0003V15.334Z" fill="#1E1E1E"/>
<path d="M27.3338 15.334H26.0005V16.6673H27.3338V15.334Z" fill="#1E1E1E"/>
<path d="M34.0003 15.334H32.667V16.6673H34.0003V15.334Z" fill="#1E1E1E"/>
<path d="M36.6668 15.334H35.3335V16.6673H36.6668V15.334Z" fill="#1E1E1E"/>
<path d="M39.3338 15.334H38.0005V16.6673H39.3338V15.334Z" fill="#1E1E1E"/>
<path d="M43.3338 15.334H42.0005V16.6673H43.3338V15.334Z" fill="#1E1E1E"/>
<path d="M44.6668 15.334H43.3335V16.6673H44.6668V15.334Z" fill="#1E1E1E"/>
<path d="M46.0003 15.334H44.667V16.6673H46.0003V15.334Z" fill="#1E1E1E"/>
<path d="M48.6668 15.334H47.3335V16.6673H48.6668V15.334Z" fill="#1E1E1E"/>
<path d="M50.0003 15.334H48.667V16.6673H50.0003V15.334Z" fill="#1E1E1E"/>
<path d="M51.3338 15.334H50.0005V16.6673H51.3338V15.334Z" fill="#1E1E1E"/>
<path d="M55.3338 15.334H54.0005V16.6673H55.3338V15.334Z" fill="#1E1E1E"/>
<path d="M3.33333 16.668H2V18.0013H3.33333V16.668Z" fill="#1E1E1E"/>
<path d="M4.66732 16.668H3.33398V18.0013H4.66732V16.668Z" fill="#1E1E1E"/>
<path d="M7.33333 16.668H6V18.0013H7.33333V16.668Z" fill="#1E1E1E"/>
<path d="M8.66732 16.668H7.33398V18.0013H8.66732V16.668Z" fill="#1E1E1E"/>
<path d="M10.0003 16.668H8.66699V18.0013H10.0003V16.668Z" fill="#1E1E1E"/>
<path d="M11.3333 16.668H10V18.0013H11.3333V16.668Z" fill="#1E1E1E"/>
<path d="M14.0003 16.668H12.667V18.0013H14.0003V16.668Z" fill="#1E1E1E"/>
<path d="M16.6673 16.668H15.334V18.0013H16.6673V16.668Z" fill="#1E1E1E"/>
<path d="M20.6673 16.668H19.334V18.0013H20.6673V16.668Z" fill="#1E1E1E"/>
<path d="M22.0003 16.668H20.667V18.0013H22.0003V16.668Z" fill="#1E1E1E"/>
<path d="M31.3333 16.668H30V18.0013H31.3333V16.668Z" fill="#1E1E1E"/>
<path d="M36.6673 16.668H35.334V18.0013H36.6673V16.668Z" fill="#1E1E1E"/>
<path d="M42.0003 16.668H40.667V18.0013H42.0003V16.668Z" fill="#1E1E1E"/>
<path d="M44.6673 16.668H43.334V18.0013H44.6673V16.668Z" fill="#1E1E1E"/>
<path d="M47.3333 16.668H46V18.0013H47.3333V16.668Z" fill="#1E1E1E"/>
<path d="M48.6673 16.668H47.334V18.0013H48.6673V16.668Z" fill="#1E1E1E"/>
<path d="M54.0003 16.668H52.667V18.0013H54.0003V16.668Z" fill="#1E1E1E"/>
<path d="M2.00033 18.002H0.666992V19.3353H2.00033V18.002Z" fill="#1E1E1E"/>
<path d="M3.33333 18.002H2V19.3353H3.33333V18.002Z" fill="#1E1E1E"/>
<path d="M6.00033 18.002H4.66699V19.3353H6.00033V18.002Z" fill="#1E1E1E"/>
<path d="M11.3333 18.002H10V19.3353H11.3333V18.002Z" fill="#1E1E1E"/>
<path d="M15.3333 18.002H14V19.3353H15.3333V18.002Z" fill="#1E1E1E"/>
<path d="M16.6673 18.002H15.334V19.3353H16.6673V18.002Z" fill="#1E1E1E"/>
<path d="M19.3333 18.002H18V19.3353H19.3333V18.002Z" fill="#1E1E1E"/>
<path d="M20.6673 18.002H19.334V19.3353H20.6673V18.002Z" fill="#1E1E1E"/>
<path d="M22.0003 18.002H20.667V19.3353H22.0003V18.002Z" fill="#1E1E1E"/>
<path d="M27.3333 18.002H26V19.3353H27.3333V18.002Z" fill="#1E1E1E"/>
<path d="M28.6673 18.002H27.334V19.3353H28.6673V18.002Z" fill="#1E1E1E"/>
<path d="M31.3333 18.002H30V19.3353H31.3333V18.002Z" fill="#1E1E1E"/>
<path d="M35.3333 18.002H34V19.3353H35.3333V18.002Z" fill="#1E1E1E"/>
<path d="M42.0003 18.002H40.667V19.3353H42.0003V18.002Z" fill="#1E1E1E"/>
<path d="M43.3333 18.002H42V19.3353H43.3333V18.002Z" fill="#1E1E1E"/>
<path d="M47.3333 18.002H46V19.3353H47.3333V18.002Z" fill="#1E1E1E"/>
<path d="M48.6673 18.002H47.334V19.3353H48.6673V18.002Z" fill="#1E1E1E"/>
<path d="M50.0003 18.002H48.667V19.3353H50.0003V18.002Z" fill="#1E1E1E"/>
<path d="M52.6673 18.002H51.334V19.3353H52.6673V18.002Z" fill="#1E1E1E"/>
<path d="M55.3333 18.002H54V19.3353H55.3333V18.002Z" fill="#1E1E1E"/>
<path d="M2.00033 19.334H0.666992V20.6673H2.00033V19.334Z" fill="#1E1E1E"/>
<path d="M6.00033 19.334H4.66699V20.6673H6.00033V19.334Z" fill="#1E1E1E"/>
<path d="M8.66732 19.334H7.33398V20.6673H8.66732V19.334Z" fill="#1E1E1E"/>
<path d="M10.0003 19.334H8.66699V20.6673H10.0003V19.334Z" fill="#1E1E1E"/>
<path d="M12.6673 19.334H11.334V20.6673H12.6673V19.334Z" fill="#1E1E1E"/>
<path d="M14.0003 19.334H12.667V20.6673H14.0003V19.334Z" fill="#1E1E1E"/>
<path d="M15.3333 19.334H14V20.6673H15.3333V19.334Z" fill="#1E1E1E"/>
<path d="M16.6673 19.334H15.334V20.6673H16.6673V19.334Z" fill="#1E1E1E"/>
<path d="M18.0003 19.334H16.667V20.6673H18.0003V19.334Z" fill="#1E1E1E"/>
<path d="M38.0003 19.334H36.667V20.6673H38.0003V19.334Z" fill="#1E1E1E"/>
<path d="M39.3333 19.334H38V20.6673H39.3333V19.334Z" fill="#1E1E1E"/>
<path d="M44.6673 19.334H43.334V20.6673H44.6673V19.334Z" fill="#1E1E1E"/>
<path d="M46.0003 19.334H44.667V20.6673H46.0003V19.334Z" fill="#1E1E1E"/>
<path d="M48.6673 19.334H47.334V20.6673H48.6673V19.334Z" fill="#1E1E1E"/>
<path d="M50.0003 19.334H48.667V20.6673H50.0003V19.334Z" fill="#1E1E1E"/>
<path d="M51.3333 19.334H50V20.6673H51.3333V19.334Z" fill="#1E1E1E"/>
<path d="M52.6673 19.334H51.334V20.6673H52.6673V19.334Z" fill="#1E1E1E"/>
<path d="M4.66732 20.668H3.33398V22.0013H4.66732V20.668Z" fill="#1E1E1E"/>
<path d="M11.3333 20.668H10V22.0013H11.3333V20.668Z" fill="#1E1E1E"/>
<path d="M18.0003 20.668H16.667V22.0013H18.0003V20.668Z" fill="#1E1E1E"/>
<path d="M19.3333 20.668H18V22.0013H19.3333V20.668Z" fill="#1E1E1E"/>
<path d="M39.3333 20.668H38V22.0013H39.3333V20.668Z" fill="#1E1E1E"/>
<path d="M46.0003 20.668H44.667V22.0013H46.0003V20.668Z" fill="#1E1E1E"/>
<path d="M51.3333 20.668H50V22.0013H51.3333V20.668Z" fill="#1E1E1E"/>
<path d="M52.6673 20.668H51.334V22.0013H52.6673V20.668Z" fill="#1E1E1E"/>
<path d="M54.0003 20.668H52.667V22.0013H54.0003V20.668Z" fill="#1E1E1E"/>
<path d="M55.3333 20.668H54V22.0013H55.3333V20.668Z" fill="#1E1E1E"/>
<path d="M2.00033 22H0.666992V23.3333H2.00033V22Z" fill="#1E1E1E"/>
<path d="M3.33333 22H2V23.3333H3.33333V22Z" fill="#1E1E1E"/>
<path d="M6.00033 22H4.66699V23.3333H6.00033V22Z" fill="#1E1E1E"/>
<path d="M7.33333 22H6V23.3333H7.33333V22Z" fill="#1E1E1E"/>
<path d="M8.66732 22H7.33398V23.3333H8.66732V22Z" fill="#1E1E1E"/>
<path d="M10.0003 22H8.66699V23.3333H10.0003V22Z" fill="#1E1E1E"/>
<path d="M11.3333 22H10V23.3333H11.3333V22Z" fill="#1E1E1E"/>
<path d="M14.0003 22H12.667V23.3333H14.0003V22Z" fill="#1E1E1E"/>
<path d="M15.3333 22H14V23.3333H15.3333V22Z" fill="#1E1E1E"/>
<path d="M16.6673 22H15.334V23.3333H16.6673V22Z" fill="#1E1E1E"/>
<path d="M18.0003 22H16.667V23.3333H18.0003V22Z" fill="#1E1E1E"/>
<path d="M38.0003 22H36.667V23.3333H38.0003V22Z" fill="#1E1E1E"/>
<path d="M40.6673 22H39.334V23.3333H40.6673V22Z" fill="#1E1E1E"/>
<path d="M43.3333 22H42V23.3333H43.3333V22Z" fill="#1E1E1E"/>
<path d="M46.0003 22H44.667V23.3333H46.0003V22Z" fill="#1E1E1E"/>
<path d="M48.6673 22H47.334V23.3333H48.6673V22Z" fill="#1E1E1E"/>
<path d="M52.6673 22H51.334V23.3333H52.6673V22Z" fill="#1E1E1E"/>
<path d="M54.0003 22H52.667V23.3333H54.0003V22Z" fill="#1E1E1E"/>
<path d="M2.00033 23.3359H0.666992V24.6693H2.00033V23.3359Z" fill="#1E1E1E"/>
<path d="M4.66732 23.3359H3.33398V24.6693H4.66732V23.3359Z" fill="#1E1E1E"/>
<path d="M11.3333 23.3359H10V24.6693H11.3333V23.3359Z" fill="#1E1E1E"/>
<path d="M12.6673 23.3359H11.334V24.6693H12.6673V23.3359Z" fill="#1E1E1E"/>
<path d="M16.6673 23.3359H15.334V24.6693H16.6673V23.3359Z" fill="#1E1E1E"/>
<path d="M38.0003 23.3359H36.667V24.6693H38.0003V23.3359Z" fill="#1E1E1E"/>
<path d="M39.3333 23.3359H38V24.6693H39.3333V23.3359Z" fill="#1E1E1E"/>
<path d="M40.6673 23.3359H39.334V24.6693H40.6673V23.3359Z" fill="#1E1E1E"/>
<path d="M42.0003 23.3359H40.667V24.6693H42.0003V23.3359Z" fill="#1E1E1E"/>
<path d="M43.3333 23.3359H42V24.6693H43.3333V23.3359Z" fill="#1E1E1E"/>
<path d="M44.6673 23.3359H43.334V24.6693H44.6673V23.3359Z" fill="#1E1E1E"/>
<path d="M46.0003 23.3359H44.667V24.6693H46.0003V23.3359Z" fill="#1E1E1E"/>
<path d="M47.3333 23.3359H46V24.6693H47.3333V23.3359Z" fill="#1E1E1E"/>
<path d="M48.6673 23.3359H47.334V24.6693H48.6673V23.3359Z" fill="#1E1E1E"/>
<path d="M50.0003 23.3359H48.667V24.6693H50.0003V23.3359Z" fill="#1E1E1E"/>
<path d="M51.3333 23.3359H50V24.6693H51.3333V23.3359Z" fill="#1E1E1E"/>
<path d="M52.6673 23.3359H51.334V24.6693H52.6673V23.3359Z" fill="#1E1E1E"/>
<path d="M55.3333 23.3359H54V24.6693H55.3333V23.3359Z" fill="#1E1E1E"/>
<path d="M3.33382 24.668H2.00049V26.0013H3.33382V24.668Z" fill="#1E1E1E"/>
<path d="M7.33382 24.668H6.00049V26.0013H7.33382V24.668Z" fill="#1E1E1E"/>
<path d="M8.66683 24.668H7.3335V26.0013H8.66683V24.668Z" fill="#1E1E1E"/>
<path d="M10.0003 24.668H8.66699V26.0013H10.0003V24.668Z" fill="#1E1E1E"/>
<path d="M11.3333 24.668H10V26.0013H11.3333V24.668Z" fill="#1E1E1E"/>
<path d="M15.3338 24.668H14.0005V26.0013H15.3338V24.668Z" fill="#1E1E1E"/>
<path d="M18.0003 24.668H16.667V26.0013H18.0003V24.668Z" fill="#1E1E1E"/>
<path d="M19.3338 24.668H18.0005V26.0013H19.3338V24.668Z" fill="#1E1E1E"/>
<path d="M38.0003 24.668H36.667V26.0013H38.0003V24.668Z" fill="#1E1E1E"/>
<path d="M43.3338 24.668H42.0005V26.0013H43.3338V24.668Z" fill="#1E1E1E"/>
<path d="M48.6668 24.668H47.3335V26.0013H48.6668V24.668Z" fill="#1E1E1E"/>
<path d="M50.0003 24.668H48.667V26.0013H50.0003V24.668Z" fill="#1E1E1E"/>
<path d="M51.3338 24.668H50.0005V26.0013H51.3338V24.668Z" fill="#1E1E1E"/>
<path d="M55.3338 24.668H54.0005V26.0013H55.3338V24.668Z" fill="#1E1E1E"/>
<path d="M2.00033 26.002H0.666992V27.3353H2.00033V26.002Z" fill="#1E1E1E"/>
<path d="M4.66732 26.002H3.33398V27.3353H4.66732V26.002Z" fill="#1E1E1E"/>
<path d="M7.33333 26.002H6V27.3353H7.33333V26.002Z" fill="#1E1E1E"/>
<path d="M8.66732 26.002H7.33398V27.3353H8.66732V26.002Z" fill="#1E1E1E"/>
<path d="M11.3333 26.002H10V27.3353H11.3333V26.002Z" fill="#1E1E1E"/>
<path d="M15.3333 26.002H14V27.3353H15.3333V26.002Z" fill="#1E1E1E"/>
<path d="M16.6673 26.002H15.334V27.3353H16.6673V26.002Z" fill="#1E1E1E"/>
<path d="M18.0003 26.002H16.667V27.3353H18.0003V26.002Z" fill="#1E1E1E"/>
<path d="M19.3333 26.002H18V27.3353H19.3333V26.002Z" fill="#1E1E1E"/>
<path d="M40.6673 26.002H39.334V27.3353H40.6673V26.002Z" fill="#1E1E1E"/>
<path d="M42.0003 26.002H40.667V27.3353H42.0003V26.002Z" fill="#1E1E1E"/>
<path d="M47.3333 26.002H46V27.3353H47.3333V26.002Z" fill="#1E1E1E"/>
<path d="M50.0003 26.002H48.667V27.3353H50.0003V26.002Z" fill="#1E1E1E"/>
<path d="M51.3333 26.002H50V27.3353H51.3333V26.002Z" fill="#1E1E1E"/>
<path d="M55.3333 26.002H54V27.3353H55.3333V26.002Z" fill="#1E1E1E"/>
<path d="M2.00033 27.334H0.666992V28.6673H2.00033V27.334Z" fill="#1E1E1E"/>
<path d="M6.00033 27.334H4.66699V28.6673H6.00033V27.334Z" fill="#1E1E1E"/>
<path d="M10.0003 27.334H8.66699V28.6673H10.0003V27.334Z" fill="#1E1E1E"/>
<path d="M11.3333 27.334H10V28.6673H11.3333V27.334Z" fill="#1E1E1E"/>
<path d="M43.3338 27.334H42.0005V28.6673H43.3338V27.334Z" fill="#1E1E1E"/>
<path d="M46.0003 27.334H44.667V28.6673H46.0003V27.334Z" fill="#1E1E1E"/>
<path d="M51.3338 27.334H50.0005V28.6673H51.3338V27.334Z" fill="#1E1E1E"/>
<path d="M52.6673 27.334H51.334V28.6673H52.6673V27.334Z" fill="#1E1E1E"/>
<path d="M55.3338 27.334H54.0005V28.6673H55.3338V27.334Z" fill="#1E1E1E"/>
<path d="M3.33333 28.668H2V30.0013H3.33333V28.668Z" fill="#1E1E1E"/>
<path d="M4.66732 28.668H3.33398V30.0013H4.66732V28.668Z" fill="#1E1E1E"/>
<path d="M7.33333 28.668H6V30.0013H7.33333V28.668Z" fill="#1E1E1E"/>
<path d="M8.66732 28.668H7.33398V30.0013H8.66732V28.668Z" fill="#1E1E1E"/>
<path d="M19.3333 28.668H18V30.0013H19.3333V28.668Z" fill="#1E1E1E"/>
<path d="M38.0003 28.668H36.667V30.0013H38.0003V28.668Z" fill="#1E1E1E"/>
<path d="M42.0003 28.668H40.667V30.0013H42.0003V28.668Z" fill="#1E1E1E"/>
<path d="M43.3333 28.668H42V30.0013H43.3333V28.668Z" fill="#1E1E1E"/>
<path d="M48.6673 28.668H47.334V30.0013H48.6673V28.668Z" fill="#1E1E1E"/>
<path d="M50.0003 28.668H48.667V30.0013H50.0003V28.668Z" fill="#1E1E1E"/>
<path d="M51.3333 28.668H50V30.0013H51.3333V28.668Z" fill="#1E1E1E"/>
<path d="M10.0003 30.002H8.66699V31.3353H10.0003V30.002Z" fill="#1E1E1E"/>
<path d="M11.3333 30.002H10V31.3353H11.3333V30.002Z" fill="#1E1E1E"/>
<path d="M14.0003 30.002H12.667V31.3353H14.0003V30.002Z" fill="#1E1E1E"/>
<path d="M18.0003 30.002H16.667V31.3353H18.0003V30.002Z" fill="#1E1E1E"/>
<path d="M19.3333 30.002H18V31.3353H19.3333V30.002Z" fill="#1E1E1E"/>
<path d="M38.0003 30.002H36.667V31.3353H38.0003V30.002Z" fill="#1E1E1E"/>
<path d="M39.3333 30.002H38V31.3353H39.3333V30.002Z" fill="#1E1E1E"/>
<path d="M40.6673 30.002H39.334V31.3353H40.6673V30.002Z" fill="#1E1E1E"/>
<path d="M44.6673 30.002H43.334V31.3353H44.6673V30.002Z" fill="#1E1E1E"/>
<path d="M47.3333 30.002H46V31.3353H47.3333V30.002Z" fill="#1E1E1E"/>
<path d="M51.3333 30.002H50V31.3353H51.3333V30.002Z" fill="#1E1E1E"/>
<path d="M52.6673 30.002H51.334V31.3353H52.6673V30.002Z" fill="#1E1E1E"/>
<path d="M2.00033 31.334H0.666992V32.6673H2.00033V31.334Z" fill="#1E1E1E"/>
<path d="M3.33333 31.334H2V32.6673H3.33333V31.334Z" fill="#1E1E1E"/>
<path d="M4.66732 31.334H3.33398V32.6673H4.66732V31.334Z" fill="#1E1E1E"/>
<path d="M7.33333 31.334H6V32.6673H7.33333V31.334Z" fill="#1E1E1E"/>
<path d="M8.66732 31.334H7.33398V32.6673H8.66732V31.334Z" fill="#1E1E1E"/>
<path d="M11.3333 31.334H10V32.6673H11.3333V31.334Z" fill="#1E1E1E"/>
<path d="M12.6673 31.334H11.334V32.6673H12.6673V31.334Z" fill="#1E1E1E"/>
<path d="M15.3333 31.334H14V32.6673H15.3333V31.334Z" fill="#1E1E1E"/>
<path d="M16.6673 31.334H15.334V32.6673H16.6673V31.334Z" fill="#1E1E1E"/>
<path d="M19.3333 31.334H18V32.6673H19.3333V31.334Z" fill="#1E1E1E"/>
<path d="M38.0003 31.334H36.667V32.6673H38.0003V31.334Z" fill="#1E1E1E"/>
<path d="M39.3333 31.334H38V32.6673H39.3333V31.334Z" fill="#1E1E1E"/>
<path d="M43.3333 31.334H42V32.6673H43.3333V31.334Z" fill="#1E1E1E"/>
<path d="M47.3333 31.334H46V32.6673H47.3333V31.334Z" fill="#1E1E1E"/>
<path d="M48.6673 31.334H47.334V32.6673H48.6673V31.334Z" fill="#1E1E1E"/>
<path d="M50.0003 31.334H48.667V32.6673H50.0003V31.334Z" fill="#1E1E1E"/>
<path d="M51.3333 31.334H50V32.6673H51.3333V31.334Z" fill="#1E1E1E"/>
<path d="M54.0003 31.334H52.667V32.6673H54.0003V31.334Z" fill="#1E1E1E"/>
<path d="M4.66732 32.668H3.33398V34.0013H4.66732V32.668Z" fill="#1E1E1E"/>
<path d="M8.66732 32.668H7.33398V34.0013H8.66732V32.668Z" fill="#1E1E1E"/>
<path d="M10.0003 32.668H8.66699V34.0013H10.0003V32.668Z" fill="#1E1E1E"/>
<path d="M12.6673 32.668H11.334V34.0013H12.6673V32.668Z" fill="#1E1E1E"/>
<path d="M15.3333 32.668H14V34.0013H15.3333V32.668Z" fill="#1E1E1E"/>
<path d="M16.6673 32.668H15.334V34.0013H16.6673V32.668Z" fill="#1E1E1E"/>
<path d="M18.0003 32.668H16.667V34.0013H18.0003V32.668Z" fill="#1E1E1E"/>
<path d="M39.3333 32.668H38V34.0013H39.3333V32.668Z" fill="#1E1E1E"/>
<path d="M43.3333 32.668H42V34.0013H43.3333V32.668Z" fill="#1E1E1E"/>
<path d="M44.6673 32.668H43.334V34.0013H44.6673V32.668Z" fill="#1E1E1E"/>
<path d="M47.3333 32.668H46V34.0013H47.3333V32.668Z" fill="#1E1E1E"/>
<path d="M48.6673 32.668H47.334V34.0013H48.6673V32.668Z" fill="#1E1E1E"/>
<path d="M51.3333 32.668H50V34.0013H51.3333V32.668Z" fill="#1E1E1E"/>
<path d="M55.3333 32.668H54V34.0013H55.3333V32.668Z" fill="#1E1E1E"/>
<path d="M4.66732 34H3.33398V35.3333H4.66732V34Z" fill="#1E1E1E"/>
<path d="M7.33333 34H6V35.3333H7.33333V34Z" fill="#1E1E1E"/>
<path d="M12.6673 34H11.334V35.3333H12.6673V34Z" fill="#1E1E1E"/>
<path d="M14.0003 34H12.667V35.3333H14.0003V34Z" fill="#1E1E1E"/>
<path d="M15.3333 34H14V35.3333H15.3333V34Z" fill="#1E1E1E"/>
<path d="M16.6673 34H15.334V35.3333H16.6673V34Z" fill="#1E1E1E"/>
<path d="M38.0003 34H36.667V35.3333H38.0003V34Z" fill="#1E1E1E"/>
<path d="M39.3333 34H38V35.3333H39.3333V34Z" fill="#1E1E1E"/>
<path d="M40.6673 34H39.334V35.3333H40.6673V34Z" fill="#1E1E1E"/>
<path d="M43.3333 34H42V35.3333H43.3333V34Z" fill="#1E1E1E"/>
<path d="M47.3333 34H46V35.3333H47.3333V34Z" fill="#1E1E1E"/>
<path d="M48.6673 34H47.334V35.3333H48.6673V34Z" fill="#1E1E1E"/>
<path d="M50.0003 34H48.667V35.3333H50.0003V34Z" fill="#1E1E1E"/>
<path d="M51.3333 34H50V35.3333H51.3333V34Z" fill="#1E1E1E"/>
<path d="M55.3333 34H54V35.3333H55.3333V34Z" fill="#1E1E1E"/>
<path d="M2.00033 35.3359H0.666992V36.6693H2.00033V35.3359Z" fill="#1E1E1E"/>
<path d="M6.00033 35.3359H4.66699V36.6693H6.00033V35.3359Z" fill="#1E1E1E"/>
<path d="M7.33333 35.3359H6V36.6693H7.33333V35.3359Z" fill="#1E1E1E"/>
<path d="M10.0003 35.3359H8.66699V36.6693H10.0003V35.3359Z" fill="#1E1E1E"/>
<path d="M11.3333 35.3359H10V36.6693H11.3333V35.3359Z" fill="#1E1E1E"/>
<path d="M12.6673 35.3359H11.334V36.6693H12.6673V35.3359Z" fill="#1E1E1E"/>
<path d="M14.0003 35.3359H12.667V36.6693H14.0003V35.3359Z" fill="#1E1E1E"/>
<path d="M18.0003 35.3359H16.667V36.6693H18.0003V35.3359Z" fill="#1E1E1E"/>
<path d="M19.3333 35.3359H18V36.6693H19.3333V35.3359Z" fill="#1E1E1E"/>
<path d="M38.0003 35.3359H36.667V36.6693H38.0003V35.3359Z" fill="#1E1E1E"/>
<path d="M40.6673 35.3359H39.334V36.6693H40.6673V35.3359Z" fill="#1E1E1E"/>
<path d="M44.6673 35.3359H43.334V36.6693H44.6673V35.3359Z" fill="#1E1E1E"/>
<path d="M46.0003 35.3359H44.667V36.6693H46.0003V35.3359Z" fill="#1E1E1E"/>
<path d="M47.3333 35.3359H46V36.6693H47.3333V35.3359Z" fill="#1E1E1E"/>
<path d="M48.6673 35.3359H47.334V36.6693H48.6673V35.3359Z" fill="#1E1E1E"/>
<path d="M6.00033 36.668H4.66699V38.0013H6.00033V36.668Z" fill="#1E1E1E"/>
<path d="M8.66683 36.668H7.3335V38.0013H8.66683V36.668Z" fill="#1E1E1E"/>
<path d="M11.3333 36.668H10V38.0013H11.3333V36.668Z" fill="#1E1E1E"/>
<path d="M14.0003 36.668H12.667V38.0013H14.0003V36.668Z" fill="#1E1E1E"/>
<path d="M15.3338 36.668H14.0005V38.0013H15.3338V36.668Z" fill="#1E1E1E"/>
<path d="M19.3338 36.668H18.0005V38.0013H19.3338V36.668Z" fill="#1E1E1E"/>
<path d="M20.6668 36.668H19.3335V38.0013H20.6668V36.668Z" fill="#1E1E1E"/>
<path d="M22.0003 36.668H20.667V38.0013H22.0003V36.668Z" fill="#1E1E1E"/>
<path d="M23.3333 36.668H22V38.0013H23.3333V36.668Z" fill="#1E1E1E"/>
<path d="M24.6668 36.668H23.3335V38.0013H24.6668V36.668Z" fill="#1E1E1E"/>
<path d="M26.0003 36.668H24.667V38.0013H26.0003V36.668Z" fill="#1E1E1E"/>
<path d="M30.0003 36.668H28.667V38.0013H30.0003V36.668Z" fill="#1E1E1E"/>
<path d="M31.3338 36.668H30.0005V38.0013H31.3338V36.668Z" fill="#1E1E1E"/>
<path d="M38.0003 36.668H36.667V38.0013H38.0003V36.668Z" fill="#1E1E1E"/>
<path d="M43.3338 36.668H42.0005V38.0013H43.3338V36.668Z" fill="#1E1E1E"/>
<path d="M46.0003 36.668H44.667V38.0013H46.0003V36.668Z" fill="#1E1E1E"/>
<path d="M47.3333 36.668H46V38.0013H47.3333V36.668Z" fill="#1E1E1E"/>
<path d="M48.6668 36.668H47.3335V38.0013H48.6668V36.668Z" fill="#1E1E1E"/>
<path d="M51.3338 36.668H50.0005V38.0013H51.3338V36.668Z" fill="#1E1E1E"/>
<path d="M52.6673 36.668H51.334V38.0013H52.6673V36.668Z" fill="#1E1E1E"/>
<path d="M54.0003 36.668H52.667V38.0013H54.0003V36.668Z" fill="#1E1E1E"/>
<path d="M4.66732 38.002H3.33398V39.3353H4.66732V38.002Z" fill="#1E1E1E"/>
<path d="M8.66732 38.002H7.33398V39.3353H8.66732V38.002Z" fill="#1E1E1E"/>
<path d="M10.0003 38.002H8.66699V39.3353H10.0003V38.002Z" fill="#1E1E1E"/>
<path d="M11.3333 38.002H10V39.3353H11.3333V38.002Z" fill="#1E1E1E"/>
<path d="M12.6673 38.002H11.334V39.3353H12.6673V38.002Z" fill="#1E1E1E"/>
<path d="M15.3333 38.002H14V39.3353H15.3333V38.002Z" fill="#1E1E1E"/>
<path d="M16.6673 38.002H15.334V39.3353H16.6673V38.002Z" fill="#1E1E1E"/>
<path d="M20.6673 38.002H19.334V39.3353H20.6673V38.002Z" fill="#1E1E1E"/>
<path d="M22.0003 38.002H20.667V39.3353H22.0003V38.002Z" fill="#1E1E1E"/>
<path d="M23.3333 38.002H22V39.3353H23.3333V38.002Z" fill="#1E1E1E"/>
<path d="M28.6673 38.002H27.334V39.3353H28.6673V38.002Z" fill="#1E1E1E"/>
<path d="M30.0003 38.002H28.667V39.3353H30.0003V38.002Z" fill="#1E1E1E"/>
<path d="M31.3333 38.002H30V39.3353H31.3333V38.002Z" fill="#1E1E1E"/>
<path d="M32.6673 38.002H31.334V39.3353H32.6673V38.002Z" fill="#1E1E1E"/>
<path d="M35.3333 38.002H34V39.3353H35.3333V38.002Z" fill="#1E1E1E"/>
<path d="M40.6673 38.002H39.334V39.3353H40.6673V38.002Z" fill="#1E1E1E"/>
<path d="M43.3333 38.002H42V39.3353H43.3333V38.002Z" fill="#1E1E1E"/>
<path d="M51.3333 38.002H50V39.3353H51.3333V38.002Z" fill="#1E1E1E"/>
<path d="M52.6673 38.002H51.334V39.3353H52.6673V38.002Z" fill="#1E1E1E"/>
<path d="M2.00033 39.334H0.666992V40.6673H2.00033V39.334Z" fill="#1E1E1E"/>
<path d="M4.66732 39.334H3.33398V40.6673H4.66732V39.334Z" fill="#1E1E1E"/>
<path d="M7.33382 39.334H6.00049V40.6673H7.33382V39.334Z" fill="#1E1E1E"/>
<path d="M8.66683 39.334H7.3335V40.6673H8.66683V39.334Z" fill="#1E1E1E"/>
<path d="M11.3333 39.334H10V40.6673H11.3333V39.334Z" fill="#1E1E1E"/>
<path d="M12.6668 39.334H11.3335V40.6673H12.6668V39.334Z" fill="#1E1E1E"/>
<path d="M15.3338 39.334H14.0005V40.6673H15.3338V39.334Z" fill="#1E1E1E"/>
<path d="M16.6673 39.334H15.334V40.6673H16.6673V39.334Z" fill="#1E1E1E"/>
<path d="M22.0003 39.334H20.667V40.6673H22.0003V39.334Z" fill="#1E1E1E"/>
<path d="M23.3333 39.334H22V40.6673H23.3333V39.334Z" fill="#1E1E1E"/>
<path d="M24.6668 39.334H23.3335V40.6673H24.6668V39.334Z" fill="#1E1E1E"/>
<path d="M26.0003 39.334H24.667V40.6673H26.0003V39.334Z" fill="#1E1E1E"/>
<path d="M32.6668 39.334H31.3335V40.6673H32.6668V39.334Z" fill="#1E1E1E"/>
<path d="M35.3333 39.334H34V40.6673H35.3333V39.334Z" fill="#1E1E1E"/>
<path d="M36.6668 39.334H35.3335V40.6673H36.6668V39.334Z" fill="#1E1E1E"/>
<path d="M39.3338 39.334H38.0005V40.6673H39.3338V39.334Z" fill="#1E1E1E"/>
<path d="M42.0003 39.334H40.667V40.6673H42.0003V39.334Z" fill="#1E1E1E"/>
<path d="M43.3338 39.334H42.0005V40.6673H43.3338V39.334Z" fill="#1E1E1E"/>
<path d="M46.0003 39.334H44.667V40.6673H46.0003V39.334Z" fill="#1E1E1E"/>
<path d="M47.3333 39.334H46V40.6673H47.3333V39.334Z" fill="#1E1E1E"/>
<path d="M48.6668 39.334H47.3335V40.6673H48.6668V39.334Z" fill="#1E1E1E"/>
<path d="M50.0003 39.334H48.667V40.6673H50.0003V39.334Z" fill="#1E1E1E"/>
<path d="M51.3338 39.334H50.0005V40.6673H51.3338V39.334Z" fill="#1E1E1E"/>
<path d="M55.3338 39.334H54.0005V40.6673H55.3338V39.334Z" fill="#1E1E1E"/>
<path d="M2.00033 40.668H0.666992V42.0013H2.00033V40.668Z" fill="#1E1E1E"/>
<path d="M3.33333 40.668H2V42.0013H3.33333V40.668Z" fill="#1E1E1E"/>
<path d="M6.00033 40.668H4.66699V42.0013H6.00033V40.668Z" fill="#1E1E1E"/>
<path d="M10.0003 40.668H8.66699V42.0013H10.0003V40.668Z" fill="#1E1E1E"/>
<path d="M12.6673 40.668H11.334V42.0013H12.6673V40.668Z" fill="#1E1E1E"/>
<path d="M14.0003 40.668H12.667V42.0013H14.0003V40.668Z" fill="#1E1E1E"/>
<path d="M18.0003 40.668H16.667V42.0013H18.0003V40.668Z" fill="#1E1E1E"/>
<path d="M26.0003 40.668H24.667V42.0013H26.0003V40.668Z" fill="#1E1E1E"/>
<path d="M27.3333 40.668H26V42.0013H27.3333V40.668Z" fill="#1E1E1E"/>
<path d="M31.3333 40.668H30V42.0013H31.3333V40.668Z" fill="#1E1E1E"/>
<path d="M32.6673 40.668H31.334V42.0013H32.6673V40.668Z" fill="#1E1E1E"/>
<path d="M39.3333 40.668H38V42.0013H39.3333V40.668Z" fill="#1E1E1E"/>
<path d="M40.6673 40.668H39.334V42.0013H40.6673V40.668Z" fill="#1E1E1E"/>
<path d="M43.3333 40.668H42V42.0013H43.3333V40.668Z" fill="#1E1E1E"/>
<path d="M44.6673 40.668H43.334V42.0013H44.6673V40.668Z" fill="#1E1E1E"/>
<path d="M46.0003 40.668H44.667V42.0013H46.0003V40.668Z" fill="#1E1E1E"/>
<path d="M48.6673 40.668H47.334V42.0013H48.6673V40.668Z" fill="#1E1E1E"/>
<path d="M50.0003 40.668H48.667V42.0013H50.0003V40.668Z" fill="#1E1E1E"/>
<path d="M52.6673 40.668H51.334V42.0013H52.6673V40.668Z" fill="#1E1E1E"/>
<path d="M55.3333 40.668H54V42.0013H55.3333V40.668Z" fill="#1E1E1E"/>
<path d="M2.00033 42.002H0.666992V43.3353H2.00033V42.002Z" fill="#1E1E1E"/>
<path d="M8.66732 42.002H7.33398V43.3353H8.66732V42.002Z" fill="#1E1E1E"/>
<path d="M11.3333 42.002H10V43.3353H11.3333V42.002Z" fill="#1E1E1E"/>
<path d="M15.3333 42.002H14V43.3353H15.3333V42.002Z" fill="#1E1E1E"/>
<path d="M22.0003 42.002H20.667V43.3353H22.0003V42.002Z" fill="#1E1E1E"/>
<path d="M23.3333 42.002H22V43.3353H23.3333V42.002Z" fill="#1E1E1E"/>
<path d="M27.3333 42.002H26V43.3353H27.3333V42.002Z" fill="#1E1E1E"/>
<path d="M28.6673 42.002H27.334V43.3353H28.6673V42.002Z" fill="#1E1E1E"/>
<path d="M31.3333 42.002H30V43.3353H31.3333V42.002Z" fill="#1E1E1E"/>
<path d="M32.6673 42.002H31.334V43.3353H32.6673V42.002Z" fill="#1E1E1E"/>
<path d="M35.3333 42.002H34V43.3353H35.3333V42.002Z" fill="#1E1E1E"/>
<path d="M38.0003 42.002H36.667V43.3353H38.0003V42.002Z" fill="#1E1E1E"/>
<path d="M39.3333 42.002H38V43.3353H39.3333V42.002Z" fill="#1E1E1E"/>
<path d="M43.3333 42.002H42V43.3353H43.3333V42.002Z" fill="#1E1E1E"/>
<path d="M47.3333 42.002H46V43.3353H47.3333V42.002Z" fill="#1E1E1E"/>
<path d="M48.6673 42.002H47.334V43.3353H48.6673V42.002Z" fill="#1E1E1E"/>
<path d="M50.0003 42.002H48.667V43.3353H50.0003V42.002Z" fill="#1E1E1E"/>
<path d="M51.3333 42.002H50V43.3353H51.3333V42.002Z" fill="#1E1E1E"/>
<path d="M2.00033 43.334H0.666992V44.6673H2.00033V43.334Z" fill="#1E1E1E"/>
<path d="M7.33333 43.334H6V44.6673H7.33333V43.334Z" fill="#1E1E1E"/>
<path d="M8.66732 43.334H7.33398V44.6673H8.66732V43.334Z" fill="#1E1E1E"/>
<path d="M10.0003 43.334H8.66699V44.6673H10.0003V43.334Z" fill="#1E1E1E"/>
<path d="M14.0003 43.334H12.667V44.6673H14.0003V43.334Z" fill="#1E1E1E"/>
<path d="M18.0003 43.334H16.667V44.6673H18.0003V43.334Z" fill="#1E1E1E"/>
<path d="M19.3333 43.334H18V44.6673H19.3333V43.334Z" fill="#1E1E1E"/>
<path d="M20.6673 43.334H19.334V44.6673H20.6673V43.334Z" fill="#1E1E1E"/>
<path d="M26.0003 43.334H24.667V44.6673H26.0003V43.334Z" fill="#1E1E1E"/>
<path d="M28.6673 43.334H27.334V44.6673H28.6673V43.334Z" fill="#1E1E1E"/>
<path d="M30.0003 43.334H28.667V44.6673H30.0003V43.334Z" fill="#1E1E1E"/>
<path d="M32.6673 43.334H31.334V44.6673H32.6673V43.334Z" fill="#1E1E1E"/>
<path d="M40.6673 43.334H39.334V44.6673H40.6673V43.334Z" fill="#1E1E1E"/>
<path d="M44.6673 43.334H43.334V44.6673H44.6673V43.334Z" fill="#1E1E1E"/>
<path d="M46.0003 43.334H44.667V44.6673H46.0003V43.334Z" fill="#1E1E1E"/>
<path d="M47.3333 43.334H46V44.6673H47.3333V43.334Z" fill="#1E1E1E"/>
<path d="M48.6673 43.334H47.334V44.6673H48.6673V43.334Z" fill="#1E1E1E"/>
<path d="M50.0003 43.334H48.667V44.6673H50.0003V43.334Z" fill="#1E1E1E"/>
<path d="M52.6673 43.334H51.334V44.6673H52.6673V43.334Z" fill="#1E1E1E"/>
<path d="M54.0003 43.334H52.667V44.6673H54.0003V43.334Z" fill="#1E1E1E"/>
<path d="M12.6673 44.668H11.334V46.0013H12.6673V44.668Z" fill="#1E1E1E"/>
<path d="M23.3333 44.668H22V46.0013H23.3333V44.668Z" fill="#1E1E1E"/>
<path d="M24.6673 44.668H23.334V46.0013H24.6673V44.668Z" fill="#1E1E1E"/>
<path d="M28.6673 44.668H27.334V46.0013H28.6673V44.668Z" fill="#1E1E1E"/>
<path d="M30.0003 44.668H28.667V46.0013H30.0003V44.668Z" fill="#1E1E1E"/>
<path d="M34.0003 44.668H32.667V46.0013H34.0003V44.668Z" fill="#1E1E1E"/>
<path d="M36.6673 44.668H35.334V46.0013H36.6673V44.668Z" fill="#1E1E1E"/>
<path d="M38.0003 44.668H36.667V46.0013H38.0003V44.668Z" fill="#1E1E1E"/>
<path d="M44.6673 44.668H43.334V46.0013H44.6673V44.668Z" fill="#1E1E1E"/>
<path d="M50.0003 44.668H48.667V46.0013H50.0003V44.668Z" fill="#1E1E1E"/>
<path d="M15.3333 46H14V47.3333H15.3333V46Z" fill="#1E1E1E"/>
<path d="M18.0003 46H16.667V47.3333H18.0003V46Z" fill="#1E1E1E"/>
<path d="M19.3333 46H18V47.3333H19.3333V46Z" fill="#1E1E1E"/>
<path d="M23.3333 46H22V47.3333H23.3333V46Z" fill="#1E1E1E"/>
<path d="M24.6673 46H23.334V47.3333H24.6673V46Z" fill="#1E1E1E"/>
<path d="M28.6673 46H27.334V47.3333H28.6673V46Z" fill="#1E1E1E"/>
<path d="M34.0003 46H32.667V47.3333H34.0003V46Z" fill="#1E1E1E"/>
<path d="M35.3333 46H34V47.3333H35.3333V46Z" fill="#1E1E1E"/>
<path d="M36.6673 46H35.334V47.3333H36.6673V46Z" fill="#1E1E1E"/>
<path d="M38.0003 46H36.667V47.3333H38.0003V46Z" fill="#1E1E1E"/>
<path d="M42.0003 46H40.667V47.3333H42.0003V46Z" fill="#1E1E1E"/>
<path d="M43.3333 46H42V47.3333H43.3333V46Z" fill="#1E1E1E"/>
<path d="M44.6673 46H43.334V47.3333H44.6673V46Z" fill="#1E1E1E"/>
<path d="M47.3333 46H46V47.3333H47.3333V46Z" fill="#1E1E1E"/>
<path d="M50.0003 46H48.667V47.3333H50.0003V46Z" fill="#1E1E1E"/>
<path d="M51.3333 46H50V47.3333H51.3333V46Z" fill="#1E1E1E"/>
<path d="M12.6673 47.3359H11.334V48.6693H12.6673V47.3359Z" fill="#1E1E1E"/>
<path d="M14.0003 47.3359H12.667V48.6693H14.0003V47.3359Z" fill="#1E1E1E"/>
<path d="M18.0003 47.3359H16.667V48.6693H18.0003V47.3359Z" fill="#1E1E1E"/>
<path d="M19.3333 47.3359H18V48.6693H19.3333V47.3359Z" fill="#1E1E1E"/>
<path d="M22.0003 47.3359H20.667V48.6693H22.0003V47.3359Z" fill="#1E1E1E"/>
<path d="M24.6673 47.3359H23.334V48.6693H24.6673V47.3359Z" fill="#1E1E1E"/>
<path d="M26.0003 47.3359H24.667V48.6693H26.0003V47.3359Z" fill="#1E1E1E"/>
<path d="M31.3333 47.3359H30V48.6693H31.3333V47.3359Z" fill="#1E1E1E"/>
<path d="M32.6673 47.3359H31.334V48.6693H32.6673V47.3359Z" fill="#1E1E1E"/>
<path d="M38.0003 47.3359H36.667V48.6693H38.0003V47.3359Z" fill="#1E1E1E"/>
<path d="M43.3333 47.3359H42V48.6693H43.3333V47.3359Z" fill="#1E1E1E"/>
<path d="M44.6673 47.3359H43.334V48.6693H44.6673V47.3359Z" fill="#1E1E1E"/>
<path d="M50.0003 47.3359H48.667V48.6693H50.0003V47.3359Z" fill="#1E1E1E"/>
<path d="M54.0003 47.3359H52.667V48.6693H54.0003V47.3359Z" fill="#1E1E1E"/>
<path d="M19.3338 48.668H18.0005V50.0013H19.3338V48.668Z" fill="#1E1E1E"/>
<path d="M22.0003 48.668H20.667V50.0013H22.0003V48.668Z" fill="#1E1E1E"/>
<path d="M23.3333 48.668H22V50.0013H23.3333V48.668Z" fill="#1E1E1E"/>
<path d="M24.6668 48.668H23.3335V50.0013H24.6668V48.668Z" fill="#1E1E1E"/>
<path d="M30.0003 48.668H28.667V50.0013H30.0003V48.668Z" fill="#1E1E1E"/>
<path d="M31.3338 48.668H30.0005V50.0013H31.3338V48.668Z" fill="#1E1E1E"/>
<path d="M35.3333 48.668H34V50.0013H35.3333V48.668Z" fill="#1E1E1E"/>
<path d="M36.6668 48.668H35.3335V50.0013H36.6668V48.668Z" fill="#1E1E1E"/>
<path d="M38.0003 48.668H36.667V50.0013H38.0003V48.668Z" fill="#1E1E1E"/>
<path d="M39.3338 48.668H38.0005V50.0013H39.3338V48.668Z" fill="#1E1E1E"/>
<path d="M40.6673 48.668H39.334V50.0013H40.6673V48.668Z" fill="#1E1E1E"/>
<path d="M42.0003 48.668H40.667V50.0013H42.0003V48.668Z" fill="#1E1E1E"/>
<path d="M43.3338 48.668H42.0005V50.0013H43.3338V48.668Z" fill="#1E1E1E"/>
<path d="M44.6668 48.668H43.3335V50.0013H44.6668V48.668Z" fill="#1E1E1E"/>
<path d="M46.0003 48.668H44.667V50.0013H46.0003V48.668Z" fill="#1E1E1E"/>
<path d="M47.3333 48.668H46V50.0013H47.3333V48.668Z" fill="#1E1E1E"/>
<path d="M48.6668 48.668H47.3335V50.0013H48.6668V48.668Z" fill="#1E1E1E"/>
<path d="M50.0003 48.668H48.667V50.0013H50.0003V48.668Z" fill="#1E1E1E"/>
<path d="M51.3338 48.668H50.0005V50.0013H51.3338V48.668Z" fill="#1E1E1E"/>
<path d="M54.0003 48.668H52.667V50.0013H54.0003V48.668Z" fill="#1E1E1E"/>
<path d="M14.0003 50.002H12.667V51.3353H14.0003V50.002Z" fill="#1E1E1E"/>
<path d="M15.3333 50.002H14V51.3353H15.3333V50.002Z" fill="#1E1E1E"/>
<path d="M19.3333 50.002H18V51.3353H19.3333V50.002Z" fill="#1E1E1E"/>
<path d="M22.0003 50.002H20.667V51.3353H22.0003V50.002Z" fill="#1E1E1E"/>
<path d="M24.6673 50.002H23.334V51.3353H24.6673V50.002Z" fill="#1E1E1E"/>
<path d="M26.0003 50.002H24.667V51.3353H26.0003V50.002Z" fill="#1E1E1E"/>
<path d="M27.3333 50.002H26V51.3353H27.3333V50.002Z" fill="#1E1E1E"/>
<path d="M28.6673 50.002H27.334V51.3353H28.6673V50.002Z" fill="#1E1E1E"/>
<path d="M34.0003 50.002H32.667V51.3353H34.0003V50.002Z" fill="#1E1E1E"/>
<path d="M38.0003 50.002H36.667V51.3353H38.0003V50.002Z" fill="#1E1E1E"/>
<path d="M39.3333 50.002H38V51.3353H39.3333V50.002Z" fill="#1E1E1E"/>
<path d="M43.3333 50.002H42V51.3353H43.3333V50.002Z" fill="#1E1E1E"/>
<path d="M44.6673 50.002H43.334V51.3353H44.6673V50.002Z" fill="#1E1E1E"/>
<path d="M48.6673 50.002H47.334V51.3353H48.6673V50.002Z" fill="#1E1E1E"/>
<path d="M54.0003 50.002H52.667V51.3353H54.0003V50.002Z" fill="#1E1E1E"/>
<path d="M55.3333 50.002H54V51.3353H55.3333V50.002Z" fill="#1E1E1E"/>
<path d="M14.0003 51.334H12.667V52.6673H14.0003V51.334Z" fill="#1E1E1E"/>
<path d="M16.6673 51.334H15.334V52.6673H16.6673V51.334Z" fill="#1E1E1E"/>
<path d="M18.0003 51.334H16.667V52.6673H18.0003V51.334Z" fill="#1E1E1E"/>
<path d="M20.6668 51.334H19.3335V52.6673H20.6668V51.334Z" fill="#1E1E1E"/>
<path d="M23.3333 51.334H22V52.6673H23.3333V51.334Z" fill="#1E1E1E"/>
<path d="M28.6673 51.334H27.334V52.6673H28.6673V51.334Z" fill="#1E1E1E"/>
<path d="M30.0003 51.334H28.667V52.6673H30.0003V51.334Z" fill="#1E1E1E"/>
<path d="M32.6668 51.334H31.3335V52.6673H32.6668V51.334Z" fill="#1E1E1E"/>
<path d="M38.0003 51.334H36.667V52.6673H38.0003V51.334Z" fill="#1E1E1E"/>
<path d="M39.3338 51.334H38.0005V52.6673H39.3338V51.334Z" fill="#1E1E1E"/>
<path d="M40.6673 51.334H39.334V52.6673H40.6673V51.334Z" fill="#1E1E1E"/>
<path d="M43.3338 51.334H42.0005V52.6673H43.3338V51.334Z" fill="#1E1E1E"/>
<path d="M46.0003 51.334H44.667V52.6673H46.0003V51.334Z" fill="#1E1E1E"/>
<path d="M47.3333 51.334H46V52.6673H47.3333V51.334Z" fill="#1E1E1E"/>
<path d="M48.6668 51.334H47.3335V52.6673H48.6668V51.334Z" fill="#1E1E1E"/>
<path d="M50.0003 51.334H48.667V52.6673H50.0003V51.334Z" fill="#1E1E1E"/>
<path d="M52.6673 51.334H51.334V52.6673H52.6673V51.334Z" fill="#1E1E1E"/>
<path d="M54.0003 51.334H52.667V52.6673H54.0003V51.334Z" fill="#1E1E1E"/>
<path d="M15.3333 52.668H14V54.0013H15.3333V52.668Z" fill="#1E1E1E"/>
<path d="M18.0003 52.668H16.667V54.0013H18.0003V52.668Z" fill="#1E1E1E"/>
<path d="M19.3333 52.668H18V54.0013H19.3333V52.668Z" fill="#1E1E1E"/>
<path d="M20.6673 52.668H19.334V54.0013H20.6673V52.668Z" fill="#1E1E1E"/>
<path d="M24.6673 52.668H23.334V54.0013H24.6673V52.668Z" fill="#1E1E1E"/>
<path d="M31.3333 52.668H30V54.0013H31.3333V52.668Z" fill="#1E1E1E"/>
<path d="M32.6673 52.668H31.334V54.0013H32.6673V52.668Z" fill="#1E1E1E"/>
<path d="M38.0003 52.668H36.667V54.0013H38.0003V52.668Z" fill="#1E1E1E"/>
<path d="M39.3333 52.668H38V54.0013H39.3333V52.668Z" fill="#1E1E1E"/>
<path d="M46.0003 52.668H44.667V54.0013H46.0003V52.668Z" fill="#1E1E1E"/>
<path d="M50.0003 52.668H48.667V54.0013H50.0003V52.668Z" fill="#1E1E1E"/>
<path d="M51.3333 52.668H50V54.0013H51.3333V52.668Z" fill="#1E1E1E"/>
<path d="M52.6673 52.668H51.334V54.0013H52.6673V52.668Z" fill="#1E1E1E"/>
<path d="M55.3333 52.668H54V54.0013H55.3333V52.668Z" fill="#1E1E1E"/>
<path d="M14.0003 54.002H12.667V55.3353H14.0003V54.002Z" fill="#1E1E1E"/>
<path d="M15.3333 54.002H14V55.3353H15.3333V54.002Z" fill="#1E1E1E"/>
<path d="M16.6673 54.002H15.334V55.3353H16.6673V54.002Z" fill="#1E1E1E"/>
<path d="M18.0003 54.002H16.667V55.3353H18.0003V54.002Z" fill="#1E1E1E"/>
<path d="M19.3333 54.002H18V55.3353H19.3333V54.002Z" fill="#1E1E1E"/>
<path d="M20.6673 54.002H19.334V55.3353H20.6673V54.002Z" fill="#1E1E1E"/>
<path d="M22.0003 54.002H20.667V55.3353H22.0003V54.002Z" fill="#1E1E1E"/>
<path d="M26.0003 54.002H24.667V55.3353H26.0003V54.002Z" fill="#1E1E1E"/>
<path d="M27.3333 54.002H26V55.3353H27.3333V54.002Z" fill="#1E1E1E"/>
<path d="M31.3333 54.002H30V55.3353H31.3333V54.002Z" fill="#1E1E1E"/>
<path d="M36.6673 54.002H35.334V55.3353H36.6673V54.002Z" fill="#1E1E1E"/>
<path d="M38.0003 54.002H36.667V55.3353H38.0003V54.002Z" fill="#1E1E1E"/>
<path d="M40.6673 54.002H39.334V55.3353H40.6673V54.002Z" fill="#1E1E1E"/>
<path d="M42.0003 54.002H40.667V55.3353H42.0003V54.002Z" fill="#1E1E1E"/>
<path d="M43.3333 54.002H42V55.3353H43.3333V54.002Z" fill="#1E1E1E"/>
<path d="M46.0003 54.002H44.667V55.3353H46.0003V54.002Z" fill="#1E1E1E"/>
<path d="M47.3333 54.002H46V55.3353H47.3333V54.002Z" fill="#1E1E1E"/>
<path d="M48.6673 54.002H47.334V55.3353H48.6673V54.002Z" fill="#1E1E1E"/>
<path d="M50.0003 54.002H48.667V55.3353H50.0003V54.002Z" fill="#1E1E1E"/>
<path d="M52.6673 54.002H51.334V55.3353H52.6673V54.002Z" fill="#1E1E1E"/>
<path d="M10.0003 7.38944C10.0003 7.98005 9.76793 8.33789 9.30126 8.53791C8.89815 8.70983 8.61246 9.02287 8.45109 9.47049C8.32126 9.83216 8.05339 10.0078 7.63339 10.0078C7.63069 10.0078 7.62779 10.0078 7.62499 10.0078H3.07779C3.07219 10.0069 3.06566 10.0078 3.06006 10.0059C2.96859 9.97795 2.87339 9.95461 2.78099 9.93212C2.61859 9.89189 2.44966 9.85083 2.28633 9.78167C1.89246 9.61535 1.60779 9.34617 1.38099 9.10323C1.07299 8.77525 0.871392 8.39585 0.778992 7.97725L0.777126 7.96512C0.722992 7.72124 0.667926 7.46793 0.666992 7.21472L0.674459 5.09073L0.666992 3.29276C0.666992 2.70224 0.899392 2.3444 1.36606 2.14429C1.76926 1.97237 2.05486 1.6584 2.21633 1.2118C2.34606 0.850132 2.61393 0.674479 3.03393 0.674479C3.03673 0.674479 3.03953 0.674479 3.04233 0.674479C3.05353 0.674479 3.06566 0.674479 3.07779 0.674479H7.58953C7.58953 0.674479 7.58953 0.674479 7.59046 0.674479H7.60735V0.676346C7.69873 0.703412 7.79402 0.727772 7.88633 0.750173C8.04873 0.790399 8.21775 0.831466 8.38109 0.900532C8.77495 1.06592 9.05962 1.33603 9.28633 1.57804C9.59442 1.90695 9.79593 2.28644 9.88833 2.70495L9.89029 2.71717C9.94442 2.96105 9.99949 3.21333 10.0004 3.46748L9.99295 5.59156L10.0003 7.38944ZM8.52351 3.0206L8.51343 2.97393C8.47209 2.81321 8.39042 2.66939 8.26451 2.53508C8.13226 2.39387 7.9889 2.25433 7.83891 2.19124C7.77806 2.16557 7.66802 2.13841 7.56162 2.112L7.54995 2.10911C7.51299 2.10015 7.46539 2.08839 7.41173 2.07448H3.36507C3.07238 2.64568 2.63091 3.08425 2.06727 3.36229L2.07446 5.09568L2.06699 7.21304C2.06821 7.32084 2.10834 7.50181 2.1439 7.66169L2.15435 7.70967C2.1957 7.86927 2.27681 8.01197 2.4015 8.14479C2.53562 8.28843 2.67805 8.42731 2.83102 8.49189C2.88954 8.51672 2.99949 8.54388 3.1057 8.5702L3.11737 8.57309C3.15694 8.58271 3.20454 8.59428 3.25699 8.60781H7.30206C7.59419 8.03699 8.03575 7.59823 8.60005 7.31991L8.59286 5.58671L8.60033 3.46935C8.59911 3.36145 8.55898 3.18039 8.52351 3.0206Z" fill="#1E1E1E"/>
<path d="M55.3338 3.28048C55.3338 2.68987 55.1014 2.33203 54.6348 2.13202C54.2316 1.9601 53.946 1.64706 53.7846 1.19943C53.6548 0.837763 53.3869 0.662109 52.9669 0.662109C52.9642 0.662109 52.9613 0.662109 52.9585 0.662109H48.4113C48.4057 0.663043 48.3992 0.662109 48.3936 0.663976C48.3021 0.691976 48.2069 0.715309 48.1145 0.737803C47.9521 0.778029 47.7832 0.819096 47.6198 0.888256C47.226 1.05458 46.9413 1.32375 46.7145 1.5667C46.4065 1.89467 46.2049 2.27407 46.1125 2.69267L46.1106 2.7048C46.0565 2.94868 46.0014 3.20199 46.0005 3.4552L46.008 5.57919L46.0005 7.37716C46.0005 7.96768 46.2329 8.32552 46.6996 8.52563C47.1028 8.69755 47.3884 9.01152 47.5498 9.45812C47.6796 9.81979 47.9474 9.99544 48.3674 9.99544C48.3702 9.99544 48.373 9.99544 48.3758 9.99544C48.387 9.99544 48.3992 9.99544 48.4113 9.99544H52.923C52.923 9.99544 52.923 9.99544 52.924 9.99544H52.9408V9.99358C53.0322 9.96651 53.1275 9.94215 53.2198 9.91975C53.3822 9.87952 53.5512 9.83846 53.7146 9.76939C54.1084 9.604 54.3931 9.3339 54.6198 9.09188C54.9279 8.76298 55.1294 8.38348 55.2218 7.96498L55.2238 7.95275C55.2779 7.70887 55.333 7.45659 55.3339 7.20244L55.3264 5.07836L55.3338 3.28048ZM53.857 7.64932L53.8469 7.69599C53.8056 7.85671 53.7239 8.00054 53.598 8.13484C53.4658 8.27606 53.3224 8.41559 53.1724 8.47868C53.1116 8.50435 53.0015 8.53151 52.8951 8.55792L52.8834 8.56082C52.8465 8.56978 52.7989 8.58154 52.7452 8.59544H48.6986C48.4059 8.02424 47.9644 7.58567 47.4008 7.30763L47.408 5.57424L47.4005 3.45688C47.4017 3.34908 47.4418 3.16811 47.4774 3.00823L47.4878 2.96026C47.5292 2.80066 47.6103 2.65795 47.735 2.52514C47.8691 2.3815 48.0115 2.24262 48.1645 2.17803C48.223 2.1532 48.333 2.12604 48.4392 2.09972L48.4509 2.09683C48.4904 2.08722 48.538 2.07564 48.5905 2.06211H52.6356C52.9277 2.63294 53.3692 3.0717 53.9335 3.35002L53.9264 5.08322L53.9338 7.20058C53.9326 7.30847 53.8925 7.48954 53.857 7.64932Z" fill="#1E1E1E"/>
<path d="M10.0003 48.6145C10.0003 48.0239 9.76793 47.666 9.30126 47.466C8.89815 47.2941 8.61246 46.981 8.45109 46.5334C8.32126 46.1717 8.05339 45.9961 7.63339 45.9961C7.63069 45.9961 7.62779 45.9961 7.62499 45.9961H3.07779C3.07219 45.997 3.06566 45.9961 3.06006 45.998C2.96859 46.026 2.87339 46.0493 2.78099 46.0718C2.61859 46.112 2.44966 46.1531 2.28633 46.2222C1.89246 46.3886 1.60779 46.6577 1.38099 46.9007C1.07299 47.2287 0.871392 47.6081 0.778992 48.0267L0.777126 48.0388C0.722992 48.2827 0.667926 48.536 0.666992 48.7892L0.674459 50.9132L0.666992 52.7111C0.666992 53.3017 0.899392 53.6595 1.36606 53.8596C1.76926 54.0315 2.05486 54.3455 2.21633 54.7921C2.34606 55.1538 2.61393 55.3294 3.03393 55.3294C3.03673 55.3294 3.03953 55.3294 3.04233 55.3294C3.05353 55.3294 3.06566 55.3294 3.07779 55.3294H7.58953C7.58953 55.3294 7.58953 55.3294 7.59046 55.3294H7.60735V55.3276C7.69873 55.3005 7.79402 55.2761 7.88633 55.2537C8.04873 55.2135 8.21775 55.1724 8.38109 55.1034C8.77495 54.938 9.05962 54.6679 9.28633 54.4259C9.59442 54.097 9.79593 53.7175 9.88833 53.299L9.89029 53.2867C9.94442 53.0429 9.99949 52.7906 10.0004 52.5364L9.99295 50.4123L10.0003 48.6145ZM8.52351 52.9833L8.51343 53.03C8.47209 53.1907 8.39042 53.3345 8.26451 53.4688C8.13226 53.61 7.9889 53.7496 7.83891 53.8127C7.77806 53.8383 7.66802 53.8655 7.56162 53.8919L7.54995 53.8948C7.51299 53.9038 7.46539 53.9155 7.41173 53.9294H3.36507C3.07238 53.3582 2.63091 52.9197 2.06727 52.6416L2.07446 50.9082L2.06699 48.7909C2.06821 48.6831 2.10834 48.5021 2.1439 48.3422L2.15435 48.2942C2.1957 48.1346 2.27681 47.9919 2.4015 47.8591C2.53562 47.7155 2.67805 47.5766 2.83102 47.512C2.88954 47.4872 2.99949 47.46 3.1057 47.4337L3.11737 47.4308C3.15694 47.4212 3.20454 47.4096 3.25699 47.3961H7.30206C7.59419 47.9669 8.03575 48.4057 8.60005 48.684L8.59286 50.4172L8.60033 52.5346C8.59911 52.6425 8.55898 52.8235 8.52351 52.9833Z" fill="#1E1E1E"/>
<path d="M7.33398 3.33398H3.33398V7.33398H7.33398V3.33398Z" fill="#1E1E1E"/>
<path d="M52.667 3.33398H48.667V7.33398H52.667V3.33398Z" fill="#1E1E1E"/>
<path d="M7.33398 48.668H3.33398V52.668H7.33398V48.668Z" fill="#1E1E1E"/>
<path d="M24.1396 25.5078H21.5039V34.0215H24.1396V25.5078Z" fill="#1E1E1E"/>
<path d="M22.8081 24.3917C23.6686 24.3917 24.3662 23.6877 24.3662 22.8209C24.3662 21.954 23.6686 21.25 22.8081 21.25C21.9476 21.25 21.25 21.954 21.25 22.8209C21.25 23.6877 21.9476 24.3917 22.8081 24.3917Z" fill="#1E1E1E"/>
<path d="M28.3509 29.55C28.3509 28.3527 28.9016 27.6407 29.9569 27.6407C30.9259 27.6407 31.392 28.3256 31.392 29.55V34.02H34.0149V28.6289C34.0149 26.3476 32.7218 25.2461 30.9179 25.2461C29.1139 25.2461 28.3525 26.6525 28.3525 26.6525V25.5063H25.8237V34.02H28.3525V29.55H28.3509Z" fill="#1E1E1E"/>
</svg>
