<?xml version="1.0" encoding="UTF-8"?>
<svg id="Layer_1" data-name="Layer 1" xmlns="http://www.w3.org/2000/svg" viewBox="0 0 1306.62 876.47">
  <defs>
    <style>
      .cls-1, .cls-2 {
        stroke-linecap: round;
      }

      .cls-1, .cls-2, .cls-3, .cls-4 {
        stroke: #1d1d1b;
      }

      .cls-1, .cls-2, .cls-4 {
        stroke-linejoin: round;
      }

      .cls-1, .cls-5 {
        fill: #1d1d1b;
      }

      .cls-2, .cls-3, .cls-4 {
        fill: none;
      }

      .cls-3 {
        stroke-miterlimit: 10;
        stroke-width: 2px;
      }
    </style>
  </defs>
  <g>
    <g>
      <line class="cls-4" x1="116.38" y1="837.47" x2="116.37" y2="837.44"/>
      <polygon class="cls-2" points="116.37 837.44 114.83 827.55 116.51 828.24 120.9 836.21 116.37 837.44"/>
      <line class="cls-4" x1="116.34" y1="837.45" x2="116.37" y2="837.44"/>
      <path class="cls-2" d="m126.36,831.84l-24.39,13.75c-1.15.65-1.25,2.26-.2,3.05l35.85,26.97c1.17.88,2.85.09,2.92-1.37l2.35-48.5c.07-1.43-1.47-2.38-2.72-1.68l-13.81,7.78"/>
      <path class="cls-1" d="m136.06,868.5l-16.56-32.8-4.61-8.01c-.31-.59.32-1.23.92-.94l10.42,5.15,9.83,36.59Z"/>
    </g>
    <path class="cls-5" d="m1.87,1.6c0-.19.03-.39.08-.58C2.18.2,2.83-.21,3.41.11c1.07.6,2.15,1.22,3.21,1.85.57.34.84,1.28.6,2.1-.24.82-.89,1.21-1.47.88-1.04-.62-2.11-1.23-3.17-1.83-.44-.25-.71-.86-.71-1.51ZM0,356.47s0-.07,0-.1c.11-2.2.29-4.45.52-6.66.09-.88.66-1.49,1.28-1.36.61.13,1.03.94.94,1.82-.22,2.13-.39,4.29-.5,6.41-.04.89-.58,1.56-1.2,1.5-.59-.06-1.05-.77-1.04-1.61Zm.32,16.4c0-.79.42-1.47.98-1.58.61-.12,1.18.5,1.25,1.38.19,2.1.44,4.24.75,6.35.12.87-.26,1.72-.87,1.91-.61.19-1.2-.37-1.32-1.24-.32-2.19-.58-4.41-.77-6.6,0-.08,0-.15,0-.23Zm2.92-38.91c0-.17.02-.33.06-.5.49-2.08,1.04-4.18,1.63-6.26.23-.82.89-1.22,1.46-.89.57.33.85,1.27.61,2.09-.57,2.02-1.11,4.06-1.58,6.07-.2.84-.83,1.3-1.42,1.02-.47-.23-.77-.86-.76-1.54Zm1.16,61.07c0-.63.27-1.23.71-1.48.57-.33,1.23.06,1.46.89.55,1.97,1.16,3.97,1.8,5.92.26.8.03,1.76-.53,2.15-.56.39-1.23.05-1.49-.75-.67-2.01-1.29-4.07-1.86-6.11-.06-.2-.08-.41-.08-.61Zm5.5-82.02c0-.27.05-.53.15-.78.76-1.9,1.56-3.82,2.4-5.71.33-.75,1.02-.98,1.55-.51s.68,1.47.34,2.22c-.82,1.85-1.6,3.73-2.34,5.58-.31.77-.99,1.04-1.53.61-.36-.3-.57-.85-.56-1.41Zm.56,182.1c0-.89.51-1.6,1.13-1.6.62,0,1.12.73,1.11,1.62-.01,2.14,0,4.33.05,6.51.02.88-.47,1.63-1.08,1.67-.62.03-1.14-.66-1.16-1.55-.05-2.22-.07-4.45-.05-6.64h0Zm.74-16.41c0-.06,0-.12,0-.18.11-1.3.24-2.63.37-3.93.09-.89.19-1.78.3-2.66.11-.88.69-1.47,1.3-1.32.61.15,1.02.98.91,1.85-.1.86-.2,1.73-.29,2.59-.13,1.27-.26,2.56-.37,3.84-.07.88-.63,1.52-1.25,1.41-.57-.1-.99-.8-.98-1.6Zm.69-63.43c0-.51.18-1.02.5-1.33.51-.5,1.21-.3,1.55.43.83,1.77,1.7,3.55,2.61,5.28.37.71.27,1.72-.23,2.25-.5.54-1.2.4-1.57-.31-.93-1.78-1.83-3.6-2.68-5.42-.13-.28-.19-.59-.19-.91Zm-.47,102.78c0-.79.42-1.48.98-1.58.61-.12,1.17.51,1.25,1.39.18,2.12.4,4.29.64,6.45.09.88-.32,1.71-.93,1.85-.61.14-1.18-.45-1.28-1.33-.24-2.2-.46-4.41-.65-6.56,0-.07,0-.15,0-.22ZM15.47,10.16c0-.23.04-.47.12-.7.28-.8.95-1.13,1.5-.74,1.38.97,2.76,1.98,4.1,2.99.55.41.75,1.39.46,2.17-.29.79-.97,1.09-1.52.68-1.32-1-2.68-1.99-4.04-2.95-.4-.28-.63-.86-.62-1.45Zm-.94,446.04c0-.15.02-.3.05-.46.45-2.11.95-4.24,1.47-6.32.21-.84.85-1.27,1.44-.97.58.3.88,1.22.67,2.06-.51,2.04-1,4.11-1.44,6.17-.18.85-.81,1.33-1.4,1.08-.49-.21-.8-.85-.79-1.55Zm-.26,84.49c0-.72.35-1.38.87-1.56.6-.21,1.2.33,1.35,1.19.34,2.07.7,4.2,1.09,6.34.16.86-.2,1.74-.8,1.97-.6.23-1.21-.28-1.37-1.14-.39-2.16-.76-4.32-1.1-6.42-.02-.13-.03-.26-.03-.38Zm4.6-246.8c0-.34.08-.68.23-.97.92-1.71,1.89-3.46,2.89-5.2.39-.69,1.1-.79,1.58-.23.48.56.54,1.58.15,2.26-.98,1.71-1.94,3.43-2.84,5.12-.38.71-1.08.84-1.57.3-.29-.32-.44-.8-.43-1.29Zm-.34,268.95c0-.68.31-1.3.78-1.52.59-.27,1.22.19,1.41,1.04.44,2.02.92,4.11,1.41,6.22.2.84-.12,1.76-.71,2.04s-1.22-.16-1.42-1c-.49-2.12-.97-4.23-1.42-6.27-.04-.17-.05-.34-.05-.5Zm2.01-128c0-.24.04-.48.12-.71.7-1.98,1.44-3.95,2.2-5.87.31-.77.99-1.05,1.53-.61.54.44.72,1.42.42,2.19-.29.74-.58,1.49-.87,2.24,1.02,1.51,2.08,2.99,3.15,4.43.45.6.47,1.62.05,2.27-.42.65-1.13.69-1.58.09-.92-1.23-1.83-2.5-2.72-3.79-.06.17-.12.34-.18.5-.28.79-.96,1.12-1.51.72-.39-.28-.62-.86-.61-1.45Zm3.23,149.71c0-.65.28-1.25.73-1.5.58-.32,1.22.1,1.44.93.53,2.05,1.07,4.09,1.62,6.12.22.83-.07,1.76-.64,2.09-.58.32-1.23-.08-1.45-.91-.55-2.04-1.09-4.1-1.63-6.15-.05-.19-.07-.39-.07-.58ZM29.43,21.31c0-.29.06-.58.17-.84.33-.75,1.02-.98,1.55-.51,1.3,1.18,2.6,2.39,3.85,3.61.51.5.64,1.5.29,2.23-.35.74-1.05.93-1.56.44-1.23-1.2-2.51-2.39-3.79-3.55-.34-.31-.52-.83-.52-1.37Zm-.11,255.05c0-.39.1-.77.3-1.08.99-1.54,2.03-3.11,3.16-4.82.43-.64,1.14-.67,1.58-.06.45.61.46,1.63.03,2.27-1.12,1.69-2.15,3.26-3.14,4.78-.42.65-1.13.69-1.58.09-.24-.32-.36-.75-.36-1.19Zm-.33,138.88c0-.33.08-.66.22-.95.92-1.78,1.88-3.55,2.86-5.26.39-.69,1.1-.79,1.58-.23.48.56.54,1.58.15,2.26-.96,1.67-1.9,3.4-2.79,5.13-.37.72-1.07.87-1.57.34-.3-.32-.45-.81-.45-1.3Zm.62,190.69c0-.63.27-1.22.7-1.48.57-.34,1.23.05,1.46.87.57,2.02,1.15,4.04,1.73,6.06.24.82-.04,1.76-.61,2.11s-1.23-.04-1.46-.86c-.58-2.02-1.16-4.05-1.74-6.08-.06-.2-.08-.41-.08-.62Zm4.38-157.82c0-.33.07-.66.22-.94.37-.72,1.07-.87,1.57-.35,1.2,1.27,2.44,2.52,3.7,3.72.51.49.65,1.49.3,2.23-.35.74-1.04.94-1.55.45-1.28-1.23-2.55-2.51-3.78-3.8-.3-.32-.46-.81-.45-1.31Zm1.81,179c0-.62.26-1.2.68-1.47.57-.36,1.23.01,1.47.83.6,2,1.21,4.01,1.82,6.01.25.81,0,1.76-.58,2.12s-1.23,0-1.48-.81c-.61-2.01-1.22-4.01-1.83-6.02-.06-.21-.09-.43-.09-.65Zm4.67-367.38c0-.4.11-.8.32-1.11,1.07-1.57,2.14-3.14,3.21-4.71.43-.64,1.14-.65,1.58-.04.44.62.45,1.64.02,2.28-1.07,1.58-2.14,3.15-3.21,4.72-.43.64-1.14.65-1.58.03-.23-.32-.34-.74-.33-1.16Zm1.94-225.08c0-.35.09-.71.25-1,.39-.69,1.1-.8,1.58-.24,1.19,1.39,2.37,2.83,3.51,4.28.46.59.51,1.6.09,2.27-.41.67-1.12.73-1.58.15-1.12-1.42-2.28-2.83-3.45-4.2-.27-.32-.41-.79-.41-1.26Zm-2.76,363.33c0-.42.12-.84.35-1.16,1.13-1.53,2.29-3.03,3.46-4.46.47-.58,1.18-.5,1.58.18s.34,1.69-.13,2.27c-1.14,1.4-2.28,2.86-3.37,4.35-.45.61-1.16.59-1.58-.06-.21-.31-.31-.72-.3-1.12Zm2.67,250.1c0-.6.25-1.18.65-1.45.56-.37,1.23-.02,1.48.78.63,1.98,1.27,3.97,1.91,5.95.26.8.02,1.76-.54,2.14s-1.23.04-1.49-.77c-.64-1.99-1.28-3.97-1.92-5.96-.07-.22-.1-.46-.1-.69Zm5.25-187.91c0-.25.04-.49.13-.73.29-.79.96-1.1,1.51-.69,1.33.99,2.7,1.94,4.06,2.85.56.37.8,1.33.54,2.13-.26.81-.93,1.16-1.49.79-1.39-.92-2.79-1.9-4.15-2.91-.39-.29-.61-.85-.6-1.44Zm4.03-217.11c0-.38.1-.77.3-1.08,1.06-1.66,2.09-3.3,3.06-4.87.41-.67,1.12-.73,1.58-.15.46.59.5,1.6.09,2.27-.98,1.59-2.02,3.24-3.09,4.92-.42.66-1.13.7-1.58.1-.24-.32-.36-.76-.36-1.2Zm-2.46,425.79c0-.59.24-1.16.63-1.44.56-.39,1.23-.06,1.5.73.66,1.96,1.33,3.93,2,5.88.27.79.04,1.76-.51,2.16-.56.4-1.23.07-1.5-.72-.67-1.96-1.34-3.93-2.01-5.9-.08-.23-.11-.48-.11-.72ZM54.06,50.34c0-.43.13-.85.36-1.17.46-.61,1.16-.57,1.58.08,1.04,1.62,2.07,3.29,3.06,4.96.4.68.34,1.69-.13,2.27-.47.58-1.18.5-1.58-.18-.96-1.63-1.97-3.26-3-4.85-.2-.31-.3-.71-.3-1.1Zm-1.79,333.42c0-.52.19-1.04.52-1.34,1.3-1.21,2.64-2.37,3.98-3.46.54-.44,1.22-.17,1.53.6.3.77.11,1.75-.43,2.19-1.3,1.06-2.6,2.19-3.87,3.37-.52.48-1.21.27-1.55-.48-.12-.27-.18-.58-.18-.88Zm4.01,305.66c0-.58.23-1.14.61-1.42.55-.41,1.23-.1,1.51.69.69,1.94,1.39,3.88,2.09,5.82.29.79.07,1.76-.48,2.17-.55.41-1.23.11-1.51-.67-.7-1.94-1.4-3.89-2.1-5.84-.09-.24-.12-.5-.12-.75Zm5.71-463.94c0-.34.08-.67.23-.96.94-1.76,1.84-3.53,2.7-5.26.36-.73,1.06-.9,1.56-.39.5.51.62,1.51.26,2.24-.87,1.76-1.79,3.57-2.75,5.36-.38.71-1.08.85-1.57.31-.29-.32-.44-.8-.44-1.29Zm1.98-157.18c0-.51.18-1.02.5-1.32.51-.5,1.21-.31,1.55.43.86,1.83,1.69,3.71,2.48,5.59.32.76.15,1.75-.38,2.21-.53.46-1.22.23-1.54-.53-.77-1.83-1.59-3.67-2.43-5.46-.13-.28-.19-.6-.19-.91Zm-1.68,400.82c0-.17.02-.34.06-.5.2-.84.84-1.3,1.42-1.02,1.42.68,2.87,1.33,4.32,1.93.59.25.93,1.14.76,1.99-.17.85-.8,1.35-1.39,1.1-1.47-.61-2.96-1.27-4.41-1.97-.47-.23-.76-.86-.76-1.53Zm1.44,240.62c0-.57.22-1.11.59-1.41.54-.43,1.22-.14,1.52.64.72,1.92,1.45,3.84,2.18,5.75.3.78.1,1.76-.44,2.19-.54.43-1.22.15-1.52-.63-.73-1.92-1.46-3.84-2.19-5.77-.09-.25-.14-.52-.13-.78Zm2.81-336.49c0-.64.28-1.24.72-1.49,1.44-.81,2.91-1.58,4.37-2.27.59-.28,1.22.18,1.41,1.02.19.85-.13,1.75-.72,2.03-1.42.67-2.85,1.42-4.25,2.21-.58.33-1.23-.08-1.45-.91-.05-.2-.08-.4-.08-.6Zm4.14-167.14c0-.24.04-.48.12-.71.67-1.9,1.32-3.88,1.93-5.88.25-.82.91-1.19,1.48-.84.57.35.82,1.3.58,2.11-.62,2.05-1.29,4.09-1.98,6.05-.28.79-.95,1.12-1.51.72-.39-.28-.62-.86-.61-1.45Zm1.08-117.79c0-.61.25-1.18.66-1.45.56-.37,1.23-.02,1.48.79.63,2.01,1.24,4.06,1.81,6.11.23.82-.05,1.76-.63,2.09s-1.23-.07-1.45-.89c-.55-2-1.15-4.01-1.77-5.97-.07-.22-.1-.45-.1-.68Zm-.27,641.49c0-.55.21-1.09.57-1.39.54-.44,1.22-.18,1.53.59.75,1.9,1.51,3.79,2.27,5.68.31.77.12,1.75-.41,2.2-.54.45-1.22.19-1.53-.58-.76-1.9-1.52-3.8-2.28-5.7-.1-.26-.15-.53-.15-.81Zm5.03-545.15c0-.14.02-.29.04-.43.42-2.07.8-4.18,1.15-6.29.14-.87.75-1.4,1.35-1.2.6.2.97,1.06.83,1.93-.36,2.16-.75,4.33-1.18,6.44-.17.86-.79,1.35-1.39,1.11-.49-.2-.81-.85-.81-1.56Zm.6-74.73c0-.71.34-1.35.83-1.54.6-.23,1.21.28,1.37,1.13.39,2.13.75,4.3,1.08,6.46.13.87-.26,1.73-.86,1.92-.6.19-1.2-.36-1.33-1.23-.31-2.11-.67-4.24-1.05-6.31-.03-.14-.04-.29-.04-.43Zm2.55,52.16c0-.06,0-.11,0-.17.17-2.14.31-4.32.42-6.48.04-.89.58-1.56,1.2-1.5.62.06,1.07.82,1.04,1.71-.11,2.2-.25,4.43-.43,6.63-.07.88-.63,1.52-1.24,1.42-.57-.09-1-.79-.99-1.61Zm.24-29.55c0-.81.44-1.51,1.02-1.59.62-.09,1.16.56,1.22,1.44.14,2.2.25,4.43.32,6.63.02.89-.45,1.64-1.07,1.69s-1.14-.64-1.17-1.52c-.07-2.15-.17-4.33-.31-6.48,0-.06,0-.11,0-.17Zm-2.12,342.22c0-.09,0-.18.02-.27.11-.88.69-1.46,1.3-1.31,1.48.37,2.98.7,4.47.98.61.12,1.04.93.96,1.8-.08.88-.65,1.5-1.26,1.39-1.52-.29-3.06-.62-4.57-1-.55-.14-.93-.82-.92-1.59Zm4.16-107.83c0-.76.39-1.43.92-1.57,1.52-.4,3.06-.75,4.59-1.03.61-.11,1.17.51,1.25,1.39.07.89-.36,1.69-.98,1.8-1.49.28-2.99.61-4.47,1-.61.16-1.19-.42-1.3-1.29-.01-.1-.02-.2-.02-.3Zm-2.4,382.7c0-.54.2-1.07.55-1.37.53-.46,1.22-.22,1.54.54.78,1.87,1.57,3.74,2.36,5.61.32.76.15,1.75-.38,2.21s-1.22.23-1.54-.53c-.79-1.87-1.58-3.75-2.36-5.62-.11-.26-.16-.55-.16-.84Zm8.37,19.56c0-.53.19-1.05.52-1.35.52-.48,1.22-.25,1.54.5.81,1.85,1.62,3.69,2.44,5.53.33.75.18,1.74-.34,2.22-.52.48-1.21.27-1.55-.48-.82-1.85-1.64-3.69-2.45-5.55-.12-.27-.17-.57-.17-.87Zm5.79-292.19s0-.02,0-.03c.02-.89.53-1.59,1.15-1.57.59.02,1.18.03,1.76.04.92,0,1.85,0,2.77-.03.62-.02,1.13.69,1.14,1.57.02.9-.48,1.62-1.1,1.64-.94.03-1.89.04-2.83.03-.6,0-1.2-.02-1.8-.04-.61-.02-1.1-.74-1.09-1.62Zm4.18-112.1h0c0-.89.51-1.61,1.13-1.6,1.54.01,3.1.08,4.63.21.62.05,1.09.83,1.05,1.7-.04.89-.57,1.56-1.19,1.51-1.5-.13-3.02-.2-4.52-.21-.62,0-1.11-.73-1.11-1.62Zm-1.31,423.58c0-.52.18-1.02.5-1.33.52-.49,1.21-.29,1.55.45.84,1.82,1.68,3.64,2.53,5.45.34.74.2,1.74-.31,2.23-.51.5-1.21.3-1.55-.43-.85-1.82-1.69-3.64-2.53-5.47-.13-.28-.19-.59-.18-.9Zm8.96,19.01c0-.5.17-1,.48-1.31.51-.51,1.21-.33,1.56.4.87,1.79,1.74,3.58,2.61,5.37.35.73.23,1.73-.28,2.24s-1.21.34-1.56-.38c-.88-1.79-1.75-3.59-2.62-5.39-.14-.28-.2-.61-.2-.93Zm4.16-331.75c0-.79.42-1.48.98-1.58,1.5-.29,3-.62,4.48-1,.61-.16,1.19.43,1.3,1.3.11.87-.3,1.71-.91,1.87-1.51.39-3.05.73-4.58,1.03-.61.12-1.17-.5-1.25-1.38,0-.07,0-.15,0-.22Zm4.11-108.57c0-.1,0-.2.02-.3.12-.87.71-1.44,1.32-1.27,1.51.42,3.03.91,4.52,1.45.6.22.96,1.09.81,1.95-.15.86-.77,1.38-1.36,1.17-1.45-.53-2.93-1-4.4-1.41-.54-.15-.91-.83-.9-1.59Zm11.56,103.73c0-.69.32-1.32.8-1.53,1.45-.63,2.9-1.31,4.31-2.02.58-.3,1.22.14,1.43.98.2.84-.11,1.76-.69,2.05-1.44.73-2.93,1.43-4.41,2.07-.59.26-1.22-.22-1.39-1.08-.03-.16-.05-.32-.05-.47Zm3.76-97.21c0-.2.03-.4.08-.59.24-.82.89-1.22,1.46-.89,1.43.83,2.85,1.73,4.24,2.67.56.38.79,1.34.53,2.14-.27.8-.94,1.15-1.49.77-1.35-.92-2.74-1.79-4.13-2.6-.44-.25-.7-.86-.69-1.5Zm11.13,88.65c0-.57.22-1.12.6-1.41,1.35-1.03,2.66-2.13,3.89-3.26.52-.48,1.21-.26,1.55.49.33.75.18,1.74-.35,2.22-1.28,1.17-2.64,2.31-4.04,3.39-.55.42-1.22.12-1.51-.66-.09-.24-.13-.51-.13-.76Zm2.95-77.88c0-.32.07-.63.21-.91.36-.73,1.06-.9,1.56-.39,1.28,1.29,2.52,2.66,3.7,4.08.47.57.53,1.58.13,2.27-.4.68-1.11.77-1.58.21-1.13-1.36-2.32-2.67-3.55-3.91-.31-.31-.48-.82-.47-1.33Zm9.83,64.08c0-.38.1-.76.29-1.07,1.02-1.61,1.94-3.29,2.74-4.99.35-.74,1.04-.94,1.56-.45.51.49.65,1.49.3,2.23-.86,1.83-1.85,3.63-2.94,5.36-.42.66-1.13.71-1.58.12-.25-.32-.37-.76-.36-1.2Zm1.58-48.15c0-.5.17-.99.47-1.3.5-.52,1.2-.35,1.56.37.93,1.88,1.77,3.82,2.48,5.75.29.78.08,1.76-.47,2.18-.55.42-1.22.12-1.51-.66-.67-1.81-1.45-3.63-2.33-5.39-.14-.29-.21-.62-.21-.95Zm5.39,27.77c0-.07,0-.14.01-.2.01-.15.03-.31.04-.46.16-1.92.21-3.87.13-5.79-.03-.89.44-1.65,1.05-1.71.62-.06,1.15.62,1.18,1.5.08,2.12.04,4.26-.14,6.36-.01.17-.03.34-.05.51-.08.88-.65,1.5-1.26,1.38-.57-.11-.97-.8-.97-1.6Z"/>
  </g>
  <path class="cls-3" d="m1246.8,69.35c-.16,0-.3-.1-.35-.25-4.13-11.75-7.34-14.96-19.09-19.09-.15-.05-.25-.19-.25-.35s.1-.3.25-.35c11.75-4.13,14.96-7.34,19.09-19.09.11-.3.6-.3.71,0,4.13,11.75,7.34,14.96,19.09,19.09.15.05.25.19.25.35s-.1.3-.25.35c-11.75,4.13-14.96,7.34-19.09,19.09-.05.15-.19.25-.35.25Z"/>
  <path class="cls-3" d="m1272.9,122.89c-.26,0-.5-.17-.59-.42-6.86-19.52-12.2-24.86-31.72-31.72-.25-.09-.42-.32-.42-.59s.17-.5.42-.59c19.52-6.86,24.86-12.2,31.72-31.72.18-.5,1-.5,1.18,0,6.86,19.52,12.2,24.86,31.72,31.72.25.09.42.32.42.59s-.17.5-.42.59c-19.52,6.86-24.86,12.2-31.72,31.72-.09.25-.32.42-.59.42Z"/>
  <path class="cls-3" d="m1296.53,63.32c-.07,0-.14-.05-.16-.12-1.91-5.43-3.39-6.91-8.82-8.82-.07-.02-.12-.09-.12-.16s.05-.14.12-.16c5.43-1.91,6.91-3.39,8.82-8.82.05-.14.28-.14.33,0,1.91,5.43,3.39,6.91,8.82,8.82.07.02.12.09.12.16s-.05.14-.12.16c-5.43,1.91-6.91,3.39-8.82,8.82-.02.07-.09.12-.16.12Z"/>
  <path class="cls-3" d="m1276.32,824.99h-16.54c-.21,0-.37-.17-.37-.38v-22.95l-19.88,11.48c-.09.05-.19.06-.28.04-.1-.03-.18-.09-.23-.17l-8.27-14.33c-.1-.18-.04-.41.14-.51l19.88-11.48-19.88-11.48c-.09-.05-.15-.13-.17-.23s-.01-.2.04-.28l8.27-14.33c.11-.18.34-.24.51-.14l19.88,11.48v-22.95c0-.21.17-.38.37-.38h16.54c.21,0,.37.17.37.38v22.95l19.88-11.48c.18-.1.41-.04.51.14l8.27,14.33c.05.09.06.19.04.28-.03.1-.09.18-.17.23l-19.88,11.48,19.88,11.48c.09.05.15.13.17.23.03.1.01.2-.04.28l-8.27,14.33c-.05.09-.13.15-.23.17-.1.02-.2.01-.28-.04l-19.88-11.48v22.95c0,.21-.17.38-.37.38Z"/>
</svg>